%TF.GenerationSoftware,KiCad,Pcbnew,10.0.4*%
%TF.CreationDate,2026-07-05T06:19:47+03:00*%
%TF.ProjectId,Project 1 LED Torch,50726f6a-6563-4742-9031-204c45442054,1*%
%TF.SameCoordinates,Original*%
%TF.FileFunction,Legend,Bot*%
%TF.FilePolarity,Positive*%
%FSLAX46Y46*%
G04 Gerber Fmt 4.6, Leading zero omitted, Abs format (unit mm)*
G04 Created by KiCad (PCBNEW 10.0.4) date 2026-07-05 06:19:47*
%MOMM*%
%LPD*%
G01*
G04 APERTURE LIST*
%ADD10C,0.100000*%
%ADD11C,0.010000*%
G04 APERTURE END LIST*
D10*
X151338972Y-127872419D02*
X151005639Y-128872419D01*
X151005639Y-128872419D02*
X150672306Y-127872419D01*
X149958020Y-128824800D02*
X150053258Y-128872419D01*
X150053258Y-128872419D02*
X150243734Y-128872419D01*
X150243734Y-128872419D02*
X150338972Y-128824800D01*
X150338972Y-128824800D02*
X150386591Y-128729561D01*
X150386591Y-128729561D02*
X150386591Y-128348609D01*
X150386591Y-128348609D02*
X150338972Y-128253371D01*
X150338972Y-128253371D02*
X150243734Y-128205752D01*
X150243734Y-128205752D02*
X150053258Y-128205752D01*
X150053258Y-128205752D02*
X149958020Y-128253371D01*
X149958020Y-128253371D02*
X149910401Y-128348609D01*
X149910401Y-128348609D02*
X149910401Y-128443847D01*
X149910401Y-128443847D02*
X150386591Y-128539085D01*
X149481829Y-128872419D02*
X149481829Y-128205752D01*
X149481829Y-128396228D02*
X149434210Y-128300990D01*
X149434210Y-128300990D02*
X149386591Y-128253371D01*
X149386591Y-128253371D02*
X149291353Y-128205752D01*
X149291353Y-128205752D02*
X149196115Y-128205752D01*
X148910400Y-128824800D02*
X148815162Y-128872419D01*
X148815162Y-128872419D02*
X148624686Y-128872419D01*
X148624686Y-128872419D02*
X148529448Y-128824800D01*
X148529448Y-128824800D02*
X148481829Y-128729561D01*
X148481829Y-128729561D02*
X148481829Y-128681942D01*
X148481829Y-128681942D02*
X148529448Y-128586704D01*
X148529448Y-128586704D02*
X148624686Y-128539085D01*
X148624686Y-128539085D02*
X148767543Y-128539085D01*
X148767543Y-128539085D02*
X148862781Y-128491466D01*
X148862781Y-128491466D02*
X148910400Y-128396228D01*
X148910400Y-128396228D02*
X148910400Y-128348609D01*
X148910400Y-128348609D02*
X148862781Y-128253371D01*
X148862781Y-128253371D02*
X148767543Y-128205752D01*
X148767543Y-128205752D02*
X148624686Y-128205752D01*
X148624686Y-128205752D02*
X148529448Y-128253371D01*
X148053257Y-128872419D02*
X148053257Y-128205752D01*
X148053257Y-127872419D02*
X148100876Y-127920038D01*
X148100876Y-127920038D02*
X148053257Y-127967657D01*
X148053257Y-127967657D02*
X148005638Y-127920038D01*
X148005638Y-127920038D02*
X148053257Y-127872419D01*
X148053257Y-127872419D02*
X148053257Y-127967657D01*
X147434210Y-128872419D02*
X147529448Y-128824800D01*
X147529448Y-128824800D02*
X147577067Y-128777180D01*
X147577067Y-128777180D02*
X147624686Y-128681942D01*
X147624686Y-128681942D02*
X147624686Y-128396228D01*
X147624686Y-128396228D02*
X147577067Y-128300990D01*
X147577067Y-128300990D02*
X147529448Y-128253371D01*
X147529448Y-128253371D02*
X147434210Y-128205752D01*
X147434210Y-128205752D02*
X147291353Y-128205752D01*
X147291353Y-128205752D02*
X147196115Y-128253371D01*
X147196115Y-128253371D02*
X147148496Y-128300990D01*
X147148496Y-128300990D02*
X147100877Y-128396228D01*
X147100877Y-128396228D02*
X147100877Y-128681942D01*
X147100877Y-128681942D02*
X147148496Y-128777180D01*
X147148496Y-128777180D02*
X147196115Y-128824800D01*
X147196115Y-128824800D02*
X147291353Y-128872419D01*
X147291353Y-128872419D02*
X147434210Y-128872419D01*
X146672305Y-128205752D02*
X146672305Y-128872419D01*
X146672305Y-128300990D02*
X146624686Y-128253371D01*
X146624686Y-128253371D02*
X146529448Y-128205752D01*
X146529448Y-128205752D02*
X146386591Y-128205752D01*
X146386591Y-128205752D02*
X146291353Y-128253371D01*
X146291353Y-128253371D02*
X146243734Y-128348609D01*
X146243734Y-128348609D02*
X146243734Y-128872419D01*
X144481829Y-128872419D02*
X145053257Y-128872419D01*
X144767543Y-128872419D02*
X144767543Y-127872419D01*
X144767543Y-127872419D02*
X144862781Y-128015276D01*
X144862781Y-128015276D02*
X144958019Y-128110514D01*
X144958019Y-128110514D02*
X145053257Y-128158133D01*
X144053257Y-128777180D02*
X144005638Y-128824800D01*
X144005638Y-128824800D02*
X144053257Y-128872419D01*
X144053257Y-128872419D02*
X144100876Y-128824800D01*
X144100876Y-128824800D02*
X144053257Y-128777180D01*
X144053257Y-128777180D02*
X144053257Y-128872419D01*
X143386591Y-127872419D02*
X143291353Y-127872419D01*
X143291353Y-127872419D02*
X143196115Y-127920038D01*
X143196115Y-127920038D02*
X143148496Y-127967657D01*
X143148496Y-127967657D02*
X143100877Y-128062895D01*
X143100877Y-128062895D02*
X143053258Y-128253371D01*
X143053258Y-128253371D02*
X143053258Y-128491466D01*
X143053258Y-128491466D02*
X143100877Y-128681942D01*
X143100877Y-128681942D02*
X143148496Y-128777180D01*
X143148496Y-128777180D02*
X143196115Y-128824800D01*
X143196115Y-128824800D02*
X143291353Y-128872419D01*
X143291353Y-128872419D02*
X143386591Y-128872419D01*
X143386591Y-128872419D02*
X143481829Y-128824800D01*
X143481829Y-128824800D02*
X143529448Y-128777180D01*
X143529448Y-128777180D02*
X143577067Y-128681942D01*
X143577067Y-128681942D02*
X143624686Y-128491466D01*
X143624686Y-128491466D02*
X143624686Y-128253371D01*
X143624686Y-128253371D02*
X143577067Y-128062895D01*
X143577067Y-128062895D02*
X143529448Y-127967657D01*
X143529448Y-127967657D02*
X143481829Y-127920038D01*
X143481829Y-127920038D02*
X143386591Y-127872419D01*
D11*
%TO.C,REF\u002A\u002A*%
X143311386Y-123775877D02*
X143287673Y-123790647D01*
X143261022Y-123812227D01*
X143261022Y-124133773D01*
X143261107Y-124227830D01*
X143261471Y-124301932D01*
X143262276Y-124358704D01*
X143263687Y-124400768D01*
X143265867Y-124430748D01*
X143268979Y-124451267D01*
X143273186Y-124464949D01*
X143278652Y-124474416D01*
X143282528Y-124479082D01*
X143313966Y-124499575D01*
X143349767Y-124498739D01*
X143381127Y-124481264D01*
X143407778Y-124459684D01*
X143407778Y-123812227D01*
X143381127Y-123790647D01*
X143355406Y-123774949D01*
X143334400Y-123769067D01*
X143311386Y-123775877D01*
G36*
X143355406Y-123774949D02*
G01*
X143381127Y-123790647D01*
X143407778Y-123812227D01*
X143407778Y-124459684D01*
X143381127Y-124481264D01*
X143349767Y-124498739D01*
X143313966Y-124499575D01*
X143282528Y-124479082D01*
X143278652Y-124474416D01*
X143273186Y-124464949D01*
X143268979Y-124451267D01*
X143265867Y-124430748D01*
X143263687Y-124400768D01*
X143262276Y-124358704D01*
X143261471Y-124301932D01*
X143261107Y-124227830D01*
X143261022Y-124133773D01*
X143261022Y-123812227D01*
X143287673Y-123790647D01*
X143311386Y-123775877D01*
X143334400Y-123769067D01*
X143355406Y-123774949D01*
G37*
X150423822Y-123791645D02*
X150417242Y-123799218D01*
X150412079Y-123808987D01*
X150408164Y-123823571D01*
X150405324Y-123845585D01*
X150403387Y-123877648D01*
X150402183Y-123922375D01*
X150401539Y-123982385D01*
X150401284Y-124060294D01*
X150401245Y-124135956D01*
X150401314Y-124229802D01*
X150401638Y-124303689D01*
X150402386Y-124360232D01*
X150403732Y-124402049D01*
X150405846Y-124431757D01*
X150408900Y-124451973D01*
X150413066Y-124465314D01*
X150418516Y-124474398D01*
X150423822Y-124480267D01*
X150456826Y-124499947D01*
X150491991Y-124498181D01*
X150523455Y-124476717D01*
X150530684Y-124468337D01*
X150536334Y-124458614D01*
X150540599Y-124444861D01*
X150543673Y-124424389D01*
X150545752Y-124394512D01*
X150547030Y-124352541D01*
X150547701Y-124295789D01*
X150547959Y-124221567D01*
X150548000Y-124137537D01*
X150548000Y-123824485D01*
X150520291Y-123796776D01*
X150486137Y-123773463D01*
X150453006Y-123772623D01*
X150423822Y-123791645D01*
G36*
X150486137Y-123773463D02*
G01*
X150520291Y-123796776D01*
X150548000Y-123824485D01*
X150548000Y-124137537D01*
X150547959Y-124221567D01*
X150547701Y-124295789D01*
X150547030Y-124352541D01*
X150545752Y-124394512D01*
X150543673Y-124424389D01*
X150540599Y-124444861D01*
X150536334Y-124458614D01*
X150530684Y-124468337D01*
X150523455Y-124476717D01*
X150491991Y-124498181D01*
X150456826Y-124499947D01*
X150423822Y-124480267D01*
X150418516Y-124474398D01*
X150413066Y-124465314D01*
X150408900Y-124451973D01*
X150405846Y-124431757D01*
X150403732Y-124402049D01*
X150402386Y-124360232D01*
X150401638Y-124303689D01*
X150401314Y-124229802D01*
X150401245Y-124135956D01*
X150401284Y-124060294D01*
X150401539Y-123982385D01*
X150402183Y-123922375D01*
X150403387Y-123877648D01*
X150405324Y-123845585D01*
X150408164Y-123823571D01*
X150412079Y-123808987D01*
X150417242Y-123799218D01*
X150423822Y-123791645D01*
X150453006Y-123772623D01*
X150486137Y-123773463D01*
G37*
X149773043Y-118526571D02*
X149676768Y-118550809D01*
X149590184Y-118593641D01*
X149515373Y-118653419D01*
X149454418Y-118728494D01*
X149409399Y-118817220D01*
X149383136Y-118913530D01*
X149377286Y-119010795D01*
X149392140Y-119104654D01*
X149425840Y-119192511D01*
X149476528Y-119271770D01*
X149542345Y-119339836D01*
X149621434Y-119394112D01*
X149711934Y-119432002D01*
X149763200Y-119444426D01*
X149807698Y-119451947D01*
X149841999Y-119454919D01*
X149874960Y-119453094D01*
X149915434Y-119446225D01*
X149948531Y-119439250D01*
X150041947Y-119407741D01*
X150125619Y-119356617D01*
X150197665Y-119287429D01*
X150256200Y-119201728D01*
X150270148Y-119174489D01*
X150286586Y-119138122D01*
X150296894Y-119107582D01*
X150302460Y-119075450D01*
X150304669Y-119034307D01*
X150304948Y-118988222D01*
X150300861Y-118903865D01*
X150287446Y-118834586D01*
X150262256Y-118773961D01*
X150222846Y-118715567D01*
X150184298Y-118671302D01*
X150112406Y-118605484D01*
X150037313Y-118560053D01*
X149954562Y-118532850D01*
X149876928Y-118522576D01*
X149773043Y-118526571D01*
G36*
X149954562Y-118532850D02*
G01*
X150037313Y-118560053D01*
X150112406Y-118605484D01*
X150184298Y-118671302D01*
X150222846Y-118715567D01*
X150262256Y-118773961D01*
X150287446Y-118834586D01*
X150300861Y-118903865D01*
X150304948Y-118988222D01*
X150304669Y-119034307D01*
X150302460Y-119075450D01*
X150296894Y-119107582D01*
X150286586Y-119138122D01*
X150270148Y-119174489D01*
X150256200Y-119201728D01*
X150197665Y-119287429D01*
X150125619Y-119356617D01*
X150041947Y-119407741D01*
X149948531Y-119439250D01*
X149915434Y-119446225D01*
X149874960Y-119453094D01*
X149841999Y-119454919D01*
X149807698Y-119451947D01*
X149763200Y-119444426D01*
X149711934Y-119432002D01*
X149621434Y-119394112D01*
X149542345Y-119339836D01*
X149476528Y-119271770D01*
X149425840Y-119192511D01*
X149392140Y-119104654D01*
X149377286Y-119010795D01*
X149383136Y-118913530D01*
X149409399Y-118817220D01*
X149454418Y-118728494D01*
X149515373Y-118653419D01*
X149590184Y-118593641D01*
X149676768Y-118550809D01*
X149773043Y-118526571D01*
X149876928Y-118522576D01*
X149954562Y-118532850D01*
G37*
X142536935Y-123769163D02*
X142458228Y-123769542D01*
X142397137Y-123770333D01*
X142351183Y-123771670D01*
X142317886Y-123773683D01*
X142294764Y-123776506D01*
X142279338Y-123780269D01*
X142269129Y-123785105D01*
X142264187Y-123788822D01*
X142238543Y-123821358D01*
X142235441Y-123855138D01*
X142251289Y-123885826D01*
X142261652Y-123898089D01*
X142272804Y-123906450D01*
X142288965Y-123911657D01*
X142314358Y-123914457D01*
X142353202Y-123915596D01*
X142409720Y-123915821D01*
X142420820Y-123915822D01*
X142566756Y-123915822D01*
X142566756Y-124186756D01*
X142566852Y-124272154D01*
X142567289Y-124337864D01*
X142568288Y-124386774D01*
X142570072Y-124421773D01*
X142572863Y-124445749D01*
X142576883Y-124461593D01*
X142582355Y-124472191D01*
X142589334Y-124480267D01*
X142622266Y-124500112D01*
X142656646Y-124498548D01*
X142687824Y-124475906D01*
X142690114Y-124473100D01*
X142697571Y-124462492D01*
X142703253Y-124450081D01*
X142707399Y-124432850D01*
X142710250Y-124407784D01*
X142712046Y-124371867D01*
X142713028Y-124322083D01*
X142713436Y-124255417D01*
X142713511Y-124179589D01*
X142713511Y-123915822D01*
X142852873Y-123915822D01*
X142912678Y-123915418D01*
X142954082Y-123913840D01*
X142981252Y-123910547D01*
X142998354Y-123904992D01*
X143009557Y-123896631D01*
X143010917Y-123895178D01*
X143027275Y-123861939D01*
X143025828Y-123824362D01*
X143007022Y-123791645D01*
X142999750Y-123785298D01*
X142990373Y-123780266D01*
X142976391Y-123776396D01*
X142955304Y-123773537D01*
X142924611Y-123771535D01*
X142881811Y-123770239D01*
X142824405Y-123769498D01*
X142749890Y-123769158D01*
X142655767Y-123769068D01*
X142635740Y-123769067D01*
X142536935Y-123769163D01*
G36*
X142655767Y-123769068D02*
G01*
X142749890Y-123769158D01*
X142824405Y-123769498D01*
X142881811Y-123770239D01*
X142924611Y-123771535D01*
X142955304Y-123773537D01*
X142976391Y-123776396D01*
X142990373Y-123780266D01*
X142999750Y-123785298D01*
X143007022Y-123791645D01*
X143025828Y-123824362D01*
X143027275Y-123861939D01*
X143010917Y-123895178D01*
X143009557Y-123896631D01*
X142998354Y-123904992D01*
X142981252Y-123910547D01*
X142954082Y-123913840D01*
X142912678Y-123915418D01*
X142852873Y-123915822D01*
X142713511Y-123915822D01*
X142713511Y-124179589D01*
X142713436Y-124255417D01*
X142713028Y-124322083D01*
X142712046Y-124371867D01*
X142710250Y-124407784D01*
X142707399Y-124432850D01*
X142703253Y-124450081D01*
X142697571Y-124462492D01*
X142690114Y-124473100D01*
X142687824Y-124475906D01*
X142656646Y-124498548D01*
X142622266Y-124500112D01*
X142589334Y-124480267D01*
X142582355Y-124472191D01*
X142576883Y-124461593D01*
X142572863Y-124445749D01*
X142570072Y-124421773D01*
X142568288Y-124386774D01*
X142567289Y-124337864D01*
X142566852Y-124272154D01*
X142566756Y-124186756D01*
X142566756Y-123915822D01*
X142420820Y-123915822D01*
X142409720Y-123915821D01*
X142353202Y-123915596D01*
X142314358Y-123914457D01*
X142288965Y-123911657D01*
X142272804Y-123906450D01*
X142261652Y-123898089D01*
X142251289Y-123885826D01*
X142235441Y-123855138D01*
X142238543Y-123821358D01*
X142264187Y-123788822D01*
X142269129Y-123785105D01*
X142279338Y-123780269D01*
X142294764Y-123776506D01*
X142317886Y-123773683D01*
X142351183Y-123771670D01*
X142397137Y-123770333D01*
X142458228Y-123769542D01*
X142536935Y-123769163D01*
X142635740Y-123769067D01*
X142655767Y-123769068D01*
G37*
X141271177Y-123774533D02*
X141239798Y-123796776D01*
X141212089Y-123824485D01*
X141212089Y-124133920D01*
X141212162Y-124225799D01*
X141212505Y-124297840D01*
X141213308Y-124352780D01*
X141214759Y-124393360D01*
X141217048Y-124422317D01*
X141220364Y-124442391D01*
X141224895Y-124456321D01*
X141230831Y-124466845D01*
X141235486Y-124473100D01*
X141266217Y-124497673D01*
X141301504Y-124500341D01*
X141333755Y-124485271D01*
X141344412Y-124476374D01*
X141351536Y-124464557D01*
X141355833Y-124445526D01*
X141358009Y-124414992D01*
X141358772Y-124368662D01*
X141358845Y-124332871D01*
X141358845Y-124198045D01*
X141855556Y-124198045D01*
X141855556Y-124320700D01*
X141856069Y-124376787D01*
X141858124Y-124415333D01*
X141862492Y-124441361D01*
X141869944Y-124459897D01*
X141878953Y-124473100D01*
X141909856Y-124497604D01*
X141944804Y-124500506D01*
X141978262Y-124483089D01*
X141987396Y-124473959D01*
X141993848Y-124461855D01*
X141998103Y-124443001D01*
X142000648Y-124413620D01*
X142001971Y-124369937D01*
X142002557Y-124308175D01*
X142002625Y-124294000D01*
X142003109Y-124177631D01*
X142003359Y-124081727D01*
X142003277Y-124004177D01*
X142002769Y-123942869D01*
X142001738Y-123895690D01*
X142000087Y-123860530D01*
X141997721Y-123835276D01*
X141994543Y-123817817D01*
X141990456Y-123806041D01*
X141985366Y-123797835D01*
X141979734Y-123791645D01*
X141947872Y-123771844D01*
X141914643Y-123774533D01*
X141883265Y-123796776D01*
X141870567Y-123811126D01*
X141862474Y-123826978D01*
X141857958Y-123849554D01*
X141855994Y-123884078D01*
X141855556Y-123935776D01*
X141855556Y-124051289D01*
X141358845Y-124051289D01*
X141358845Y-123932756D01*
X141358338Y-123878148D01*
X141356302Y-123841275D01*
X141351965Y-123817307D01*
X141344553Y-123801415D01*
X141336267Y-123791645D01*
X141304406Y-123771844D01*
X141271177Y-123774533D01*
G36*
X141979734Y-123791645D02*
G01*
X141985366Y-123797835D01*
X141990456Y-123806041D01*
X141994543Y-123817817D01*
X141997721Y-123835276D01*
X142000087Y-123860530D01*
X142001738Y-123895690D01*
X142002769Y-123942869D01*
X142003277Y-124004177D01*
X142003359Y-124081727D01*
X142003109Y-124177631D01*
X142002625Y-124294000D01*
X142002557Y-124308175D01*
X142001971Y-124369937D01*
X142000648Y-124413620D01*
X141998103Y-124443001D01*
X141993848Y-124461855D01*
X141987396Y-124473959D01*
X141978262Y-124483089D01*
X141944804Y-124500506D01*
X141909856Y-124497604D01*
X141878953Y-124473100D01*
X141869944Y-124459897D01*
X141862492Y-124441361D01*
X141858124Y-124415333D01*
X141856069Y-124376787D01*
X141855556Y-124320700D01*
X141855556Y-124198045D01*
X141358845Y-124198045D01*
X141358845Y-124332871D01*
X141358772Y-124368662D01*
X141358009Y-124414992D01*
X141355833Y-124445526D01*
X141351536Y-124464557D01*
X141344412Y-124476374D01*
X141333755Y-124485271D01*
X141301504Y-124500341D01*
X141266217Y-124497673D01*
X141235486Y-124473100D01*
X141230831Y-124466845D01*
X141224895Y-124456321D01*
X141220364Y-124442391D01*
X141217048Y-124422317D01*
X141214759Y-124393360D01*
X141213308Y-124352780D01*
X141212505Y-124297840D01*
X141212162Y-124225799D01*
X141212089Y-124133920D01*
X141212089Y-123824485D01*
X141239798Y-123796776D01*
X141271177Y-123774533D01*
X141304406Y-123771844D01*
X141336267Y-123791645D01*
X141344553Y-123801415D01*
X141351965Y-123817307D01*
X141356302Y-123841275D01*
X141358338Y-123878148D01*
X141358845Y-123932756D01*
X141358845Y-124051289D01*
X141855556Y-124051289D01*
X141855556Y-123935776D01*
X141855994Y-123884078D01*
X141857958Y-123849554D01*
X141862474Y-123826978D01*
X141870567Y-123811126D01*
X141883265Y-123796776D01*
X141914643Y-123774533D01*
X141947872Y-123771844D01*
X141979734Y-123791645D01*
G37*
X146481691Y-123769275D02*
X146352712Y-123773636D01*
X146243009Y-123786861D01*
X146150774Y-123809741D01*
X146074198Y-123843070D01*
X146011473Y-123887638D01*
X145960788Y-123944236D01*
X145920337Y-124013658D01*
X145919541Y-124015351D01*
X145895399Y-124077483D01*
X145886797Y-124132509D01*
X145893769Y-124187887D01*
X145916346Y-124251073D01*
X145920628Y-124260689D01*
X145949828Y-124316966D01*
X145982644Y-124360451D01*
X146024998Y-124397417D01*
X146082810Y-124434135D01*
X146086169Y-124436052D01*
X146136496Y-124460227D01*
X146193379Y-124478282D01*
X146260473Y-124490839D01*
X146341435Y-124498522D01*
X146439918Y-124501953D01*
X146474714Y-124502251D01*
X146640406Y-124502845D01*
X146663803Y-124473100D01*
X146670743Y-124463319D01*
X146676158Y-124451897D01*
X146680235Y-124436095D01*
X146683163Y-124413175D01*
X146685133Y-124380396D01*
X146685775Y-124356089D01*
X146529156Y-124356089D01*
X146435274Y-124356089D01*
X146380336Y-124354483D01*
X146323940Y-124350255D01*
X146277655Y-124344292D01*
X146274861Y-124343790D01*
X146192652Y-124321736D01*
X146128886Y-124288600D01*
X146081548Y-124242847D01*
X146048618Y-124182939D01*
X146042892Y-124167061D01*
X146037279Y-124142333D01*
X146039709Y-124117902D01*
X146051533Y-124085400D01*
X146058660Y-124069434D01*
X146082000Y-124027006D01*
X146110120Y-123997240D01*
X146141060Y-123976511D01*
X146203034Y-123949537D01*
X146282349Y-123929998D01*
X146374747Y-123918746D01*
X146441667Y-123916270D01*
X146529156Y-123915822D01*
X146529156Y-124356089D01*
X146685775Y-124356089D01*
X146686332Y-124335021D01*
X146686950Y-124274311D01*
X146687175Y-124195526D01*
X146687200Y-124133920D01*
X146687200Y-123824485D01*
X146659491Y-123796776D01*
X146647194Y-123785544D01*
X146633897Y-123777853D01*
X146615328Y-123773040D01*
X146587214Y-123770446D01*
X146545283Y-123769410D01*
X146485263Y-123769270D01*
X146481691Y-123769275D01*
G36*
X146685133Y-124380396D02*
G01*
X146683163Y-124413175D01*
X146680235Y-124436095D01*
X146676158Y-124451897D01*
X146670743Y-124463319D01*
X146663803Y-124473100D01*
X146640406Y-124502845D01*
X146474714Y-124502251D01*
X146439918Y-124501953D01*
X146341435Y-124498522D01*
X146260473Y-124490839D01*
X146193379Y-124478282D01*
X146136496Y-124460227D01*
X146086169Y-124436052D01*
X146082810Y-124434135D01*
X146024998Y-124397417D01*
X145982644Y-124360451D01*
X145949828Y-124316966D01*
X145920628Y-124260689D01*
X145916346Y-124251073D01*
X145893769Y-124187887D01*
X145888034Y-124142333D01*
X146037279Y-124142333D01*
X146042892Y-124167061D01*
X146048618Y-124182939D01*
X146081548Y-124242847D01*
X146128886Y-124288600D01*
X146192652Y-124321736D01*
X146274861Y-124343790D01*
X146277655Y-124344292D01*
X146323940Y-124350255D01*
X146380336Y-124354483D01*
X146435274Y-124356089D01*
X146529156Y-124356089D01*
X146529156Y-123915822D01*
X146441667Y-123916270D01*
X146374747Y-123918746D01*
X146282349Y-123929998D01*
X146203034Y-123949537D01*
X146141060Y-123976511D01*
X146110120Y-123997240D01*
X146082000Y-124027006D01*
X146058660Y-124069434D01*
X146051533Y-124085400D01*
X146039709Y-124117902D01*
X146037279Y-124142333D01*
X145888034Y-124142333D01*
X145886797Y-124132509D01*
X145895399Y-124077483D01*
X145919541Y-124015351D01*
X145920337Y-124013658D01*
X145960788Y-123944236D01*
X146011473Y-123887638D01*
X146074198Y-123843070D01*
X146150774Y-123809741D01*
X146243009Y-123786861D01*
X146352712Y-123773636D01*
X146481691Y-123769275D01*
X146485263Y-123769270D01*
X146545283Y-123769410D01*
X146587214Y-123770446D01*
X146615328Y-123773040D01*
X146633897Y-123777853D01*
X146647194Y-123785544D01*
X146659491Y-123796776D01*
X146687200Y-123824485D01*
X146687200Y-124133920D01*
X146687175Y-124195526D01*
X146686950Y-124274311D01*
X146686332Y-124335021D01*
X146685775Y-124356089D01*
X146685133Y-124380396D01*
G37*
X153621371Y-123769066D02*
X153581889Y-123769467D01*
X153466200Y-123772259D01*
X153369311Y-123780550D01*
X153287919Y-123795232D01*
X153218723Y-123817193D01*
X153158420Y-123847322D01*
X153103708Y-123886510D01*
X153084167Y-123903532D01*
X153051750Y-123943363D01*
X153022520Y-123997413D01*
X152999991Y-124057323D01*
X152987679Y-124114739D01*
X152986400Y-124135956D01*
X152994417Y-124194769D01*
X153015899Y-124259013D01*
X153046999Y-124319821D01*
X153083866Y-124368330D01*
X153089854Y-124374182D01*
X153140579Y-124415321D01*
X153196125Y-124447435D01*
X153259696Y-124471365D01*
X153334494Y-124487953D01*
X153423722Y-124498041D01*
X153530582Y-124502469D01*
X153579528Y-124502845D01*
X153641762Y-124502545D01*
X153685528Y-124501292D01*
X153714931Y-124498554D01*
X153734079Y-124493801D01*
X153747077Y-124486501D01*
X153754045Y-124480267D01*
X153760626Y-124472694D01*
X153765788Y-124462924D01*
X153769703Y-124448340D01*
X153772543Y-124426326D01*
X153774480Y-124394264D01*
X153775684Y-124349536D01*
X153776328Y-124289526D01*
X153776583Y-124211617D01*
X153776622Y-124135956D01*
X153776870Y-124035041D01*
X153776817Y-123954427D01*
X153775857Y-123915822D01*
X153629867Y-123915822D01*
X153629867Y-124356089D01*
X153536734Y-124356004D01*
X153480693Y-124354396D01*
X153421999Y-124350256D01*
X153373028Y-124344464D01*
X153371538Y-124344226D01*
X153292392Y-124325090D01*
X153231002Y-124295287D01*
X153184305Y-124252878D01*
X153154635Y-124206961D01*
X153136353Y-124156026D01*
X153137771Y-124108200D01*
X153158988Y-124056933D01*
X153200489Y-124003899D01*
X153257998Y-123964600D01*
X153332750Y-123938331D01*
X153382708Y-123929035D01*
X153439416Y-123922507D01*
X153499519Y-123917782D01*
X153550639Y-123915817D01*
X153553667Y-123915808D01*
X153629867Y-123915822D01*
X153775857Y-123915822D01*
X153775260Y-123891851D01*
X153770998Y-123845055D01*
X153762830Y-123811778D01*
X153749556Y-123789759D01*
X153729974Y-123776739D01*
X153702883Y-123770457D01*
X153667082Y-123768653D01*
X153621371Y-123769066D01*
G36*
X153776817Y-123954427D02*
G01*
X153776870Y-124035041D01*
X153776622Y-124135956D01*
X153776583Y-124211617D01*
X153776328Y-124289526D01*
X153775684Y-124349536D01*
X153774480Y-124394264D01*
X153772543Y-124426326D01*
X153769703Y-124448340D01*
X153765788Y-124462924D01*
X153760626Y-124472694D01*
X153754045Y-124480267D01*
X153747077Y-124486501D01*
X153734079Y-124493801D01*
X153714931Y-124498554D01*
X153685528Y-124501292D01*
X153641762Y-124502545D01*
X153579528Y-124502845D01*
X153530582Y-124502469D01*
X153423722Y-124498041D01*
X153334494Y-124487953D01*
X153259696Y-124471365D01*
X153196125Y-124447435D01*
X153140579Y-124415321D01*
X153089854Y-124374182D01*
X153083866Y-124368330D01*
X153046999Y-124319821D01*
X153015899Y-124259013D01*
X152994417Y-124194769D01*
X152989136Y-124156026D01*
X153136353Y-124156026D01*
X153154635Y-124206961D01*
X153184305Y-124252878D01*
X153231002Y-124295287D01*
X153292392Y-124325090D01*
X153371538Y-124344226D01*
X153373028Y-124344464D01*
X153421999Y-124350256D01*
X153480693Y-124354396D01*
X153536734Y-124356004D01*
X153629867Y-124356089D01*
X153629867Y-123915822D01*
X153553667Y-123915808D01*
X153550639Y-123915817D01*
X153499519Y-123917782D01*
X153439416Y-123922507D01*
X153382708Y-123929035D01*
X153332750Y-123938331D01*
X153257998Y-123964600D01*
X153200489Y-124003899D01*
X153158988Y-124056933D01*
X153137771Y-124108200D01*
X153136353Y-124156026D01*
X152989136Y-124156026D01*
X152986400Y-124135956D01*
X152987679Y-124114739D01*
X152999991Y-124057323D01*
X153022520Y-123997413D01*
X153051750Y-123943363D01*
X153084167Y-123903532D01*
X153103708Y-123886510D01*
X153158420Y-123847322D01*
X153218723Y-123817193D01*
X153287919Y-123795232D01*
X153369311Y-123780550D01*
X153466200Y-123772259D01*
X153581889Y-123769467D01*
X153621371Y-123769066D01*
X153667082Y-123768653D01*
X153702883Y-123770457D01*
X153729974Y-123776739D01*
X153749556Y-123789759D01*
X153762830Y-123811778D01*
X153770998Y-123845055D01*
X153775260Y-123891851D01*
X153775857Y-123915822D01*
X153776817Y-123954427D01*
G37*
X148800114Y-123773448D02*
X148776548Y-123787273D01*
X148745735Y-123809881D01*
X148706078Y-123842338D01*
X148655980Y-123885708D01*
X148593843Y-123941058D01*
X148518072Y-124009451D01*
X148431334Y-124088084D01*
X148250711Y-124251878D01*
X148245067Y-124032029D01*
X148243029Y-123956351D01*
X148241063Y-123899994D01*
X148238734Y-123859706D01*
X148235606Y-123832235D01*
X148231245Y-123814329D01*
X148225216Y-123802737D01*
X148217084Y-123794208D01*
X148212772Y-123790623D01*
X148178241Y-123771670D01*
X148145383Y-123774441D01*
X148119318Y-123790633D01*
X148092667Y-123812199D01*
X148089352Y-124127151D01*
X148088435Y-124219779D01*
X148087968Y-124292544D01*
X148088113Y-124348161D01*
X148089032Y-124389342D01*
X148090887Y-124418803D01*
X148093839Y-124439255D01*
X148098050Y-124453413D01*
X148103682Y-124463991D01*
X148109927Y-124472474D01*
X148123439Y-124488207D01*
X148136883Y-124498636D01*
X148152124Y-124502639D01*
X148171026Y-124499094D01*
X148195455Y-124486879D01*
X148227273Y-124464871D01*
X148268348Y-124431949D01*
X148320542Y-124386991D01*
X148385722Y-124328875D01*
X148459556Y-124262099D01*
X148724845Y-124021458D01*
X148730489Y-124240589D01*
X148732531Y-124316128D01*
X148734502Y-124372354D01*
X148736839Y-124412524D01*
X148739981Y-124439896D01*
X148744364Y-124457728D01*
X148750424Y-124469279D01*
X148758600Y-124477807D01*
X148762784Y-124481282D01*
X148799765Y-124500372D01*
X148834708Y-124497493D01*
X148865136Y-124473100D01*
X148872097Y-124463286D01*
X148877523Y-124451826D01*
X148881603Y-124435968D01*
X148884529Y-124412963D01*
X148886492Y-124380062D01*
X148887683Y-124334516D01*
X148888292Y-124273573D01*
X148888511Y-124194486D01*
X148888534Y-124135956D01*
X148888460Y-124044407D01*
X148888113Y-123972687D01*
X148887301Y-123918045D01*
X148885833Y-123877732D01*
X148883519Y-123848998D01*
X148880167Y-123829093D01*
X148875588Y-123815268D01*
X148869589Y-123804772D01*
X148865136Y-123798811D01*
X148853850Y-123784691D01*
X148843301Y-123774029D01*
X148831893Y-123767892D01*
X148818030Y-123767343D01*
X148800114Y-123773448D01*
G36*
X148831893Y-123767892D02*
G01*
X148843301Y-123774029D01*
X148853850Y-123784691D01*
X148865136Y-123798811D01*
X148869589Y-123804772D01*
X148875588Y-123815268D01*
X148880167Y-123829093D01*
X148883519Y-123848998D01*
X148885833Y-123877732D01*
X148887301Y-123918045D01*
X148888113Y-123972687D01*
X148888460Y-124044407D01*
X148888534Y-124135956D01*
X148888511Y-124194486D01*
X148888292Y-124273573D01*
X148887683Y-124334516D01*
X148886492Y-124380062D01*
X148884529Y-124412963D01*
X148881603Y-124435968D01*
X148877523Y-124451826D01*
X148872097Y-124463286D01*
X148865136Y-124473100D01*
X148834708Y-124497493D01*
X148799765Y-124500372D01*
X148762784Y-124481282D01*
X148758600Y-124477807D01*
X148750424Y-124469279D01*
X148744364Y-124457728D01*
X148739981Y-124439896D01*
X148736839Y-124412524D01*
X148734502Y-124372354D01*
X148732531Y-124316128D01*
X148730489Y-124240589D01*
X148724845Y-124021458D01*
X148459556Y-124262099D01*
X148385722Y-124328875D01*
X148320542Y-124386991D01*
X148268348Y-124431949D01*
X148227273Y-124464871D01*
X148195455Y-124486879D01*
X148171026Y-124499094D01*
X148152124Y-124502639D01*
X148136883Y-124498636D01*
X148123439Y-124488207D01*
X148109927Y-124472474D01*
X148103682Y-124463991D01*
X148098050Y-124453413D01*
X148093839Y-124439255D01*
X148090887Y-124418803D01*
X148089032Y-124389342D01*
X148088113Y-124348161D01*
X148087968Y-124292544D01*
X148088435Y-124219779D01*
X148089352Y-124127151D01*
X148092667Y-123812199D01*
X148119318Y-123790633D01*
X148145383Y-123774441D01*
X148178241Y-123771670D01*
X148212772Y-123790623D01*
X148217084Y-123794208D01*
X148225216Y-123802737D01*
X148231245Y-123814329D01*
X148235606Y-123832235D01*
X148238734Y-123859706D01*
X148241063Y-123899994D01*
X148243029Y-123956351D01*
X148245067Y-124032029D01*
X148250711Y-124251878D01*
X148431334Y-124088084D01*
X148518072Y-124009451D01*
X148593843Y-123941058D01*
X148655980Y-123885708D01*
X148706078Y-123842338D01*
X148745735Y-123809881D01*
X148776548Y-123787273D01*
X148800114Y-123773448D01*
X148818030Y-123767343D01*
X148831893Y-123767892D01*
G37*
X149450081Y-123774599D02*
X149381565Y-123786095D01*
X149328943Y-123803967D01*
X149294708Y-123827499D01*
X149285379Y-123840924D01*
X149275893Y-123872148D01*
X149282277Y-123900395D01*
X149302430Y-123927182D01*
X149333745Y-123939713D01*
X149379183Y-123938696D01*
X149414326Y-123931906D01*
X149492419Y-123918971D01*
X149572226Y-123917742D01*
X149661555Y-123928241D01*
X149686229Y-123932690D01*
X149769291Y-123956108D01*
X149834273Y-123990945D01*
X149880461Y-124036604D01*
X149907145Y-124092494D01*
X149912663Y-124121388D01*
X149909051Y-124180012D01*
X149885729Y-124231879D01*
X149844824Y-124275978D01*
X149788459Y-124311299D01*
X149718760Y-124336829D01*
X149637852Y-124351559D01*
X149547860Y-124354478D01*
X149450910Y-124344575D01*
X149445436Y-124343641D01*
X149406875Y-124336459D01*
X149385494Y-124329521D01*
X149376227Y-124319227D01*
X149374006Y-124301976D01*
X149373956Y-124292841D01*
X149373956Y-124254489D01*
X149442431Y-124254489D01*
X149502900Y-124250347D01*
X149544165Y-124237147D01*
X149568175Y-124213730D01*
X149576877Y-124178936D01*
X149576983Y-124174394D01*
X149571892Y-124144654D01*
X149554433Y-124123419D01*
X149521939Y-124109366D01*
X149471743Y-124101173D01*
X149423123Y-124098161D01*
X149352456Y-124096433D01*
X149301198Y-124099070D01*
X149266239Y-124108800D01*
X149244470Y-124128353D01*
X149232780Y-124160456D01*
X149228060Y-124207838D01*
X149227200Y-124270071D01*
X149228609Y-124339535D01*
X149232848Y-124386786D01*
X149239936Y-124412012D01*
X149241311Y-124413988D01*
X149280228Y-124445508D01*
X149337286Y-124470470D01*
X149408869Y-124488340D01*
X149491358Y-124498586D01*
X149581139Y-124500673D01*
X149674592Y-124494068D01*
X149729556Y-124485956D01*
X149815766Y-124461554D01*
X149895892Y-124421662D01*
X149962977Y-124369887D01*
X149973173Y-124359539D01*
X150006302Y-124316035D01*
X150036194Y-124262118D01*
X150059357Y-124205592D01*
X150072298Y-124154259D01*
X150073858Y-124134544D01*
X150067218Y-124093419D01*
X150049568Y-124042252D01*
X150024297Y-123988394D01*
X149994789Y-123939195D01*
X149968719Y-123906334D01*
X149907765Y-123857452D01*
X149828969Y-123818545D01*
X149735157Y-123790494D01*
X149629150Y-123774179D01*
X149532000Y-123770192D01*
X149450081Y-123774599D01*
G36*
X149629150Y-123774179D02*
G01*
X149735157Y-123790494D01*
X149828969Y-123818545D01*
X149907765Y-123857452D01*
X149968719Y-123906334D01*
X149994789Y-123939195D01*
X150024297Y-123988394D01*
X150049568Y-124042252D01*
X150067218Y-124093419D01*
X150073858Y-124134544D01*
X150072298Y-124154259D01*
X150059357Y-124205592D01*
X150036194Y-124262118D01*
X150006302Y-124316035D01*
X149973173Y-124359539D01*
X149962977Y-124369887D01*
X149895892Y-124421662D01*
X149815766Y-124461554D01*
X149729556Y-124485956D01*
X149674592Y-124494068D01*
X149581139Y-124500673D01*
X149491358Y-124498586D01*
X149408869Y-124488340D01*
X149337286Y-124470470D01*
X149280228Y-124445508D01*
X149241311Y-124413988D01*
X149239936Y-124412012D01*
X149232848Y-124386786D01*
X149228609Y-124339535D01*
X149227200Y-124270071D01*
X149228060Y-124207838D01*
X149232780Y-124160456D01*
X149244470Y-124128353D01*
X149266239Y-124108800D01*
X149301198Y-124099070D01*
X149352456Y-124096433D01*
X149423123Y-124098161D01*
X149471743Y-124101173D01*
X149521939Y-124109366D01*
X149554433Y-124123419D01*
X149571892Y-124144654D01*
X149576983Y-124174394D01*
X149576877Y-124178936D01*
X149568175Y-124213730D01*
X149544165Y-124237147D01*
X149502900Y-124250347D01*
X149442431Y-124254489D01*
X149373956Y-124254489D01*
X149373956Y-124292841D01*
X149374006Y-124301976D01*
X149376227Y-124319227D01*
X149385494Y-124329521D01*
X149406875Y-124336459D01*
X149445436Y-124343641D01*
X149450910Y-124344575D01*
X149547860Y-124354478D01*
X149637852Y-124351559D01*
X149718760Y-124336829D01*
X149788459Y-124311299D01*
X149844824Y-124275978D01*
X149885729Y-124231879D01*
X149909051Y-124180012D01*
X149912663Y-124121388D01*
X149907145Y-124092494D01*
X149880461Y-124036604D01*
X149834273Y-123990945D01*
X149769291Y-123956108D01*
X149686229Y-123932690D01*
X149661555Y-123928241D01*
X149572226Y-123917742D01*
X149492419Y-123918971D01*
X149414326Y-123931906D01*
X149379183Y-123938696D01*
X149333745Y-123939713D01*
X149302430Y-123927182D01*
X149282277Y-123900395D01*
X149275893Y-123872148D01*
X149285379Y-123840924D01*
X149294708Y-123827499D01*
X149328943Y-123803967D01*
X149381565Y-123786095D01*
X149450081Y-123774599D01*
X149532000Y-123770192D01*
X149629150Y-123774179D01*
G37*
X147269657Y-123769260D02*
X147193299Y-123770174D01*
X147134783Y-123772311D01*
X147091745Y-123776175D01*
X147061817Y-123782267D01*
X147042632Y-123791090D01*
X147031824Y-123803146D01*
X147027027Y-123818939D01*
X147025873Y-123838970D01*
X147025867Y-123841335D01*
X147026869Y-123863992D01*
X147031604Y-123881503D01*
X147042667Y-123894574D01*
X147062652Y-123903913D01*
X147094154Y-123910227D01*
X147139768Y-123914222D01*
X147202087Y-123916606D01*
X147283707Y-123918086D01*
X147308723Y-123918414D01*
X147550800Y-123921467D01*
X147554186Y-123986378D01*
X147557571Y-124051289D01*
X147389424Y-124051289D01*
X147323734Y-124051531D01*
X147276828Y-124052556D01*
X147244917Y-124054811D01*
X147224209Y-124058742D01*
X147210916Y-124064798D01*
X147201245Y-124073424D01*
X147201183Y-124073493D01*
X147183644Y-124107112D01*
X147184278Y-124143448D01*
X147202686Y-124174423D01*
X147206329Y-124177607D01*
X147219259Y-124185812D01*
X147236976Y-124191521D01*
X147263430Y-124195162D01*
X147302568Y-124197167D01*
X147358338Y-124197964D01*
X147394006Y-124198045D01*
X147556445Y-124198045D01*
X147556445Y-124356089D01*
X147309839Y-124356089D01*
X147228420Y-124356231D01*
X147166590Y-124356814D01*
X147121363Y-124358068D01*
X147089752Y-124360227D01*
X147068769Y-124363523D01*
X147055427Y-124368189D01*
X147046739Y-124374457D01*
X147044550Y-124376733D01*
X147028386Y-124408280D01*
X147027203Y-124444168D01*
X147040464Y-124475285D01*
X147050957Y-124485271D01*
X147061871Y-124490769D01*
X147078783Y-124495022D01*
X147104367Y-124498180D01*
X147141299Y-124500392D01*
X147192254Y-124501806D01*
X147259906Y-124502572D01*
X147346931Y-124502838D01*
X147366606Y-124502845D01*
X147455089Y-124502787D01*
X147523773Y-124502467D01*
X147575436Y-124501667D01*
X147612855Y-124500167D01*
X147638810Y-124497749D01*
X147656078Y-124494194D01*
X147667438Y-124489282D01*
X147675668Y-124482795D01*
X147680183Y-124478138D01*
X147686979Y-124469889D01*
X147692288Y-124459669D01*
X147696294Y-124444800D01*
X147699179Y-124422602D01*
X147701126Y-124390393D01*
X147702319Y-124345496D01*
X147702939Y-124285228D01*
X147703171Y-124206911D01*
X147703200Y-124140994D01*
X147703129Y-124048628D01*
X147702792Y-123976117D01*
X147702002Y-123920737D01*
X147700574Y-123879765D01*
X147698321Y-123850478D01*
X147695057Y-123830153D01*
X147690596Y-123816066D01*
X147684752Y-123805495D01*
X147679803Y-123798811D01*
X147656406Y-123769067D01*
X147366226Y-123769067D01*
X147269657Y-123769260D01*
G36*
X147679803Y-123798811D02*
G01*
X147684752Y-123805495D01*
X147690596Y-123816066D01*
X147695057Y-123830153D01*
X147698321Y-123850478D01*
X147700574Y-123879765D01*
X147702002Y-123920737D01*
X147702792Y-123976117D01*
X147703129Y-124048628D01*
X147703200Y-124140994D01*
X147703171Y-124206911D01*
X147702939Y-124285228D01*
X147702319Y-124345496D01*
X147701126Y-124390393D01*
X147699179Y-124422602D01*
X147696294Y-124444800D01*
X147692288Y-124459669D01*
X147686979Y-124469889D01*
X147680183Y-124478138D01*
X147675668Y-124482795D01*
X147667438Y-124489282D01*
X147656078Y-124494194D01*
X147638810Y-124497749D01*
X147612855Y-124500167D01*
X147575436Y-124501667D01*
X147523773Y-124502467D01*
X147455089Y-124502787D01*
X147366606Y-124502845D01*
X147346931Y-124502838D01*
X147259906Y-124502572D01*
X147192254Y-124501806D01*
X147141299Y-124500392D01*
X147104367Y-124498180D01*
X147078783Y-124495022D01*
X147061871Y-124490769D01*
X147050957Y-124485271D01*
X147040464Y-124475285D01*
X147027203Y-124444168D01*
X147028386Y-124408280D01*
X147044550Y-124376733D01*
X147046739Y-124374457D01*
X147055427Y-124368189D01*
X147068769Y-124363523D01*
X147089752Y-124360227D01*
X147121363Y-124358068D01*
X147166590Y-124356814D01*
X147228420Y-124356231D01*
X147309839Y-124356089D01*
X147556445Y-124356089D01*
X147556445Y-124198045D01*
X147394006Y-124198045D01*
X147358338Y-124197964D01*
X147302568Y-124197167D01*
X147263430Y-124195162D01*
X147236976Y-124191521D01*
X147219259Y-124185812D01*
X147206329Y-124177607D01*
X147202686Y-124174423D01*
X147184278Y-124143448D01*
X147183644Y-124107112D01*
X147201183Y-124073493D01*
X147201245Y-124073424D01*
X147210916Y-124064798D01*
X147224209Y-124058742D01*
X147244917Y-124054811D01*
X147276828Y-124052556D01*
X147323734Y-124051531D01*
X147389424Y-124051289D01*
X147557571Y-124051289D01*
X147554186Y-123986378D01*
X147550800Y-123921467D01*
X147308723Y-123918414D01*
X147283707Y-123918086D01*
X147202087Y-123916606D01*
X147139768Y-123914222D01*
X147094154Y-123910227D01*
X147062652Y-123903913D01*
X147042667Y-123894574D01*
X147031604Y-123881503D01*
X147026869Y-123863992D01*
X147025867Y-123841335D01*
X147025873Y-123838970D01*
X147027027Y-123818939D01*
X147031824Y-123803146D01*
X147042632Y-123791090D01*
X147061817Y-123782267D01*
X147091745Y-123776175D01*
X147134783Y-123772311D01*
X147193299Y-123770174D01*
X147269657Y-123769260D01*
X147366226Y-123769067D01*
X147656406Y-123769067D01*
X147679803Y-123798811D01*
G37*
X152212794Y-123769146D02*
X152143386Y-123769518D01*
X152090997Y-123770385D01*
X152052847Y-123771946D01*
X152026159Y-123774403D01*
X152008153Y-123777957D01*
X151996049Y-123782810D01*
X151987069Y-123789161D01*
X151983818Y-123792084D01*
X151964043Y-123823142D01*
X151960482Y-123858828D01*
X151973491Y-123890510D01*
X151979506Y-123896913D01*
X151989235Y-123903121D01*
X152004901Y-123907910D01*
X152029408Y-123911514D01*
X152065661Y-123914164D01*
X152116565Y-123916095D01*
X152185026Y-123917539D01*
X152247617Y-123918418D01*
X152495334Y-123921467D01*
X152498719Y-123986378D01*
X152502105Y-124051289D01*
X152333958Y-124051289D01*
X152260959Y-124051919D01*
X152207517Y-124054553D01*
X152170628Y-124060309D01*
X152147288Y-124070304D01*
X152134494Y-124085656D01*
X152129242Y-124107482D01*
X152128445Y-124127738D01*
X152130923Y-124152592D01*
X152140277Y-124170906D01*
X152159383Y-124183637D01*
X152191118Y-124191741D01*
X152238359Y-124196176D01*
X152303983Y-124197899D01*
X152339801Y-124198045D01*
X152500978Y-124198045D01*
X152500978Y-124356089D01*
X152252622Y-124356089D01*
X152171213Y-124356202D01*
X152109342Y-124356712D01*
X152063968Y-124357870D01*
X152032054Y-124359930D01*
X152010559Y-124363146D01*
X151996443Y-124367772D01*
X151986668Y-124374059D01*
X151981689Y-124378667D01*
X151964610Y-124405560D01*
X151959111Y-124429467D01*
X151966963Y-124458667D01*
X151981689Y-124480267D01*
X151989546Y-124487066D01*
X151999688Y-124492346D01*
X152014844Y-124496298D01*
X152037741Y-124499113D01*
X152071109Y-124500982D01*
X152117675Y-124502098D01*
X152180167Y-124502651D01*
X152261314Y-124502833D01*
X152303422Y-124502845D01*
X152393598Y-124502765D01*
X152463924Y-124502398D01*
X152517129Y-124501552D01*
X152555940Y-124500036D01*
X152583087Y-124497659D01*
X152601298Y-124494229D01*
X152613300Y-124489554D01*
X152621822Y-124483444D01*
X152625156Y-124480267D01*
X152631755Y-124472670D01*
X152636927Y-124462870D01*
X152640846Y-124448239D01*
X152643684Y-124426152D01*
X152645615Y-124393982D01*
X152646812Y-124349103D01*
X152647448Y-124288889D01*
X152647697Y-124210713D01*
X152647734Y-124137923D01*
X152647700Y-124044707D01*
X152647465Y-123971431D01*
X152646830Y-123915458D01*
X152645594Y-123874151D01*
X152643556Y-123844872D01*
X152640517Y-123824984D01*
X152636277Y-123811850D01*
X152630635Y-123802832D01*
X152623391Y-123795293D01*
X152621606Y-123793612D01*
X152612945Y-123786172D01*
X152602882Y-123780409D01*
X152588625Y-123776112D01*
X152567383Y-123773064D01*
X152536364Y-123771051D01*
X152492777Y-123769860D01*
X152433831Y-123769275D01*
X152356734Y-123769083D01*
X152302001Y-123769067D01*
X152212794Y-123769146D01*
G36*
X152356734Y-123769083D02*
G01*
X152433831Y-123769275D01*
X152492777Y-123769860D01*
X152536364Y-123771051D01*
X152567383Y-123773064D01*
X152588625Y-123776112D01*
X152602882Y-123780409D01*
X152612945Y-123786172D01*
X152621606Y-123793612D01*
X152623391Y-123795293D01*
X152630635Y-123802832D01*
X152636277Y-123811850D01*
X152640517Y-123824984D01*
X152643556Y-123844872D01*
X152645594Y-123874151D01*
X152646830Y-123915458D01*
X152647465Y-123971431D01*
X152647700Y-124044707D01*
X152647734Y-124137923D01*
X152647697Y-124210713D01*
X152647448Y-124288889D01*
X152646812Y-124349103D01*
X152645615Y-124393982D01*
X152643684Y-124426152D01*
X152640846Y-124448239D01*
X152636927Y-124462870D01*
X152631755Y-124472670D01*
X152625156Y-124480267D01*
X152621822Y-124483444D01*
X152613300Y-124489554D01*
X152601298Y-124494229D01*
X152583087Y-124497659D01*
X152555940Y-124500036D01*
X152517129Y-124501552D01*
X152463924Y-124502398D01*
X152393598Y-124502765D01*
X152303422Y-124502845D01*
X152261314Y-124502833D01*
X152180167Y-124502651D01*
X152117675Y-124502098D01*
X152071109Y-124500982D01*
X152037741Y-124499113D01*
X152014844Y-124496298D01*
X151999688Y-124492346D01*
X151989546Y-124487066D01*
X151981689Y-124480267D01*
X151966963Y-124458667D01*
X151959111Y-124429467D01*
X151964610Y-124405560D01*
X151981689Y-124378667D01*
X151986668Y-124374059D01*
X151996443Y-124367772D01*
X152010559Y-124363146D01*
X152032054Y-124359930D01*
X152063968Y-124357870D01*
X152109342Y-124356712D01*
X152171213Y-124356202D01*
X152252622Y-124356089D01*
X152500978Y-124356089D01*
X152500978Y-124198045D01*
X152339801Y-124198045D01*
X152303983Y-124197899D01*
X152238359Y-124196176D01*
X152191118Y-124191741D01*
X152159383Y-124183637D01*
X152140277Y-124170906D01*
X152130923Y-124152592D01*
X152128445Y-124127738D01*
X152129242Y-124107482D01*
X152134494Y-124085656D01*
X152147288Y-124070304D01*
X152170628Y-124060309D01*
X152207517Y-124054553D01*
X152260959Y-124051919D01*
X152333958Y-124051289D01*
X152502105Y-124051289D01*
X152498719Y-123986378D01*
X152495334Y-123921467D01*
X152247617Y-123918418D01*
X152185026Y-123917539D01*
X152116565Y-123916095D01*
X152065661Y-123914164D01*
X152029408Y-123911514D01*
X152004901Y-123907910D01*
X151989235Y-123903121D01*
X151979506Y-123896913D01*
X151973491Y-123890510D01*
X151960482Y-123858828D01*
X151964043Y-123823142D01*
X151983818Y-123792084D01*
X151987069Y-123789161D01*
X151996049Y-123782810D01*
X152008153Y-123777957D01*
X152026159Y-123774403D01*
X152052847Y-123771946D01*
X152090997Y-123770385D01*
X152143386Y-123769518D01*
X152212794Y-123769146D01*
X152302001Y-123769067D01*
X152356734Y-123769083D01*
G37*
X143755335Y-123771034D02*
X143735745Y-123778035D01*
X143734990Y-123778377D01*
X143708387Y-123798678D01*
X143693730Y-123819561D01*
X143690862Y-123829352D01*
X143691004Y-123842361D01*
X143695039Y-123860895D01*
X143703854Y-123887257D01*
X143718331Y-123923752D01*
X143739355Y-123972687D01*
X143767812Y-124036365D01*
X143804585Y-124117093D01*
X143824825Y-124161216D01*
X143861375Y-124239985D01*
X143895685Y-124312423D01*
X143926448Y-124375880D01*
X143952352Y-124427708D01*
X143972090Y-124465259D01*
X143984350Y-124485884D01*
X143986776Y-124488733D01*
X144017817Y-124501302D01*
X144052879Y-124499619D01*
X144081000Y-124484332D01*
X144082146Y-124483089D01*
X144093332Y-124466154D01*
X144112096Y-124433170D01*
X144136125Y-124388380D01*
X144163103Y-124336032D01*
X144172799Y-124316742D01*
X144245986Y-124170150D01*
X144325760Y-124329393D01*
X144354233Y-124384415D01*
X144380650Y-124432132D01*
X144402852Y-124468893D01*
X144418681Y-124491044D01*
X144424046Y-124495741D01*
X144465743Y-124502102D01*
X144500151Y-124488733D01*
X144510272Y-124474446D01*
X144527786Y-124442692D01*
X144551265Y-124396597D01*
X144579280Y-124339285D01*
X144610401Y-124273880D01*
X144643201Y-124203507D01*
X144676250Y-124131291D01*
X144708119Y-124060355D01*
X144737381Y-123993825D01*
X144762605Y-123934826D01*
X144782364Y-123886481D01*
X144795228Y-123851915D01*
X144799769Y-123834253D01*
X144799723Y-123833613D01*
X144788674Y-123811388D01*
X144766590Y-123788753D01*
X144765290Y-123787768D01*
X144738147Y-123772425D01*
X144713042Y-123772574D01*
X144703632Y-123775466D01*
X144692166Y-123781718D01*
X144679990Y-123794014D01*
X144665643Y-123814908D01*
X144647664Y-123846949D01*
X144624593Y-123892688D01*
X144594970Y-123954677D01*
X144568255Y-124011898D01*
X144537520Y-124078226D01*
X144509979Y-124137874D01*
X144487062Y-124187725D01*
X144470202Y-124224664D01*
X144460827Y-124245573D01*
X144459460Y-124248845D01*
X144453311Y-124243497D01*
X144439178Y-124221109D01*
X144418943Y-124184946D01*
X144394485Y-124138277D01*
X144384752Y-124119022D01*
X144351783Y-124054004D01*
X144326357Y-124006654D01*
X144306388Y-123974219D01*
X144289790Y-123953946D01*
X144274476Y-123943082D01*
X144258360Y-123938875D01*
X144247857Y-123938400D01*
X144229330Y-123940042D01*
X144213096Y-123946831D01*
X144196965Y-123961566D01*
X144178749Y-123987044D01*
X144156261Y-124026061D01*
X144127311Y-124081414D01*
X144111338Y-124112903D01*
X144085430Y-124163087D01*
X144062833Y-124204704D01*
X144045542Y-124234242D01*
X144035550Y-124248189D01*
X144034191Y-124248770D01*
X144027739Y-124237793D01*
X144013292Y-124209290D01*
X143992297Y-124166244D01*
X143966203Y-124111638D01*
X143936454Y-124048454D01*
X143921820Y-124017071D01*
X143883750Y-123936078D01*
X143853095Y-123873756D01*
X143828263Y-123828071D01*
X143807663Y-123796989D01*
X143789702Y-123778478D01*
X143772790Y-123770504D01*
X143755335Y-123771034D01*
G36*
X143789702Y-123778478D02*
G01*
X143807663Y-123796989D01*
X143828263Y-123828071D01*
X143853095Y-123873756D01*
X143883750Y-123936078D01*
X143921820Y-124017071D01*
X143936454Y-124048454D01*
X143966203Y-124111638D01*
X143992297Y-124166244D01*
X144013292Y-124209290D01*
X144027739Y-124237793D01*
X144034191Y-124248770D01*
X144035550Y-124248189D01*
X144045542Y-124234242D01*
X144062833Y-124204704D01*
X144085430Y-124163087D01*
X144111338Y-124112903D01*
X144127311Y-124081414D01*
X144156261Y-124026061D01*
X144178749Y-123987044D01*
X144196965Y-123961566D01*
X144213096Y-123946831D01*
X144229330Y-123940042D01*
X144247857Y-123938400D01*
X144258360Y-123938875D01*
X144274476Y-123943082D01*
X144289790Y-123953946D01*
X144306388Y-123974219D01*
X144326357Y-124006654D01*
X144351783Y-124054004D01*
X144384752Y-124119022D01*
X144394485Y-124138277D01*
X144418943Y-124184946D01*
X144439178Y-124221109D01*
X144453311Y-124243497D01*
X144459460Y-124248845D01*
X144460827Y-124245573D01*
X144470202Y-124224664D01*
X144487062Y-124187725D01*
X144509979Y-124137874D01*
X144537520Y-124078226D01*
X144568255Y-124011898D01*
X144594970Y-123954677D01*
X144624593Y-123892688D01*
X144647664Y-123846949D01*
X144665643Y-123814908D01*
X144679990Y-123794014D01*
X144692166Y-123781718D01*
X144703632Y-123775466D01*
X144713042Y-123772574D01*
X144738147Y-123772425D01*
X144765290Y-123787768D01*
X144766590Y-123788753D01*
X144788674Y-123811388D01*
X144799723Y-123833613D01*
X144799769Y-123834253D01*
X144795228Y-123851915D01*
X144782364Y-123886481D01*
X144762605Y-123934826D01*
X144737381Y-123993825D01*
X144708119Y-124060355D01*
X144676250Y-124131291D01*
X144643201Y-124203507D01*
X144610401Y-124273880D01*
X144579280Y-124339285D01*
X144551265Y-124396597D01*
X144527786Y-124442692D01*
X144510272Y-124474446D01*
X144500151Y-124488733D01*
X144465743Y-124502102D01*
X144424046Y-124495741D01*
X144418681Y-124491044D01*
X144402852Y-124468893D01*
X144380650Y-124432132D01*
X144354233Y-124384415D01*
X144325760Y-124329393D01*
X144245986Y-124170150D01*
X144172799Y-124316742D01*
X144163103Y-124336032D01*
X144136125Y-124388380D01*
X144112096Y-124433170D01*
X144093332Y-124466154D01*
X144082146Y-124483089D01*
X144081000Y-124484332D01*
X144052879Y-124499619D01*
X144017817Y-124501302D01*
X143986776Y-124488733D01*
X143984350Y-124485884D01*
X143972090Y-124465259D01*
X143952352Y-124427708D01*
X143926448Y-124375880D01*
X143895685Y-124312423D01*
X143861375Y-124239985D01*
X143824825Y-124161216D01*
X143804585Y-124117093D01*
X143767812Y-124036365D01*
X143739355Y-123972687D01*
X143718331Y-123923752D01*
X143703854Y-123887257D01*
X143695039Y-123860895D01*
X143691004Y-123842361D01*
X143690862Y-123829352D01*
X143693730Y-123819561D01*
X143708387Y-123798678D01*
X143734990Y-123778377D01*
X143735745Y-123778035D01*
X143755335Y-123771034D01*
X143772790Y-123770504D01*
X143789702Y-123778478D01*
G37*
X151191703Y-123770351D02*
X151116888Y-123775581D01*
X151047306Y-123783750D01*
X150987002Y-123794550D01*
X150940020Y-123807673D01*
X150910406Y-123822813D01*
X150905860Y-123827269D01*
X150890054Y-123861850D01*
X150894847Y-123897351D01*
X150919364Y-123927725D01*
X150920534Y-123928596D01*
X150934954Y-123937954D01*
X150950008Y-123942876D01*
X150971005Y-123943473D01*
X151003257Y-123939861D01*
X151052073Y-123932154D01*
X151056000Y-123931505D01*
X151128739Y-123922569D01*
X151207217Y-123918161D01*
X151285927Y-123918119D01*
X151359361Y-123922279D01*
X151422011Y-123930479D01*
X151468370Y-123942557D01*
X151471416Y-123943771D01*
X151505048Y-123962615D01*
X151516864Y-123981685D01*
X151507614Y-124000439D01*
X151478047Y-124018337D01*
X151428911Y-124034837D01*
X151360957Y-124049396D01*
X151315645Y-124056406D01*
X151221456Y-124069889D01*
X151146544Y-124082214D01*
X151087717Y-124094449D01*
X151041785Y-124107661D01*
X151005555Y-124122917D01*
X150975838Y-124141285D01*
X150949442Y-124163831D01*
X150928230Y-124185971D01*
X150903065Y-124216819D01*
X150890681Y-124243345D01*
X150886808Y-124276026D01*
X150886667Y-124287995D01*
X150889576Y-124327712D01*
X150901202Y-124357259D01*
X150921323Y-124383486D01*
X150962216Y-124423576D01*
X151007817Y-124454149D01*
X151061513Y-124476203D01*
X151126692Y-124490735D01*
X151206744Y-124498741D01*
X151305057Y-124501218D01*
X151321289Y-124501177D01*
X151386849Y-124499818D01*
X151451866Y-124496730D01*
X151509252Y-124492356D01*
X151551922Y-124487140D01*
X151555372Y-124486541D01*
X151597796Y-124476491D01*
X151633780Y-124463796D01*
X151654150Y-124452190D01*
X151673107Y-124421572D01*
X151674427Y-124385918D01*
X151658085Y-124354144D01*
X151654429Y-124350551D01*
X151639315Y-124339876D01*
X151620415Y-124335276D01*
X151591162Y-124336059D01*
X151555651Y-124340127D01*
X151515970Y-124343762D01*
X151460345Y-124346828D01*
X151395406Y-124349053D01*
X151327785Y-124350164D01*
X151310000Y-124350237D01*
X151242128Y-124349964D01*
X151192454Y-124348646D01*
X151156610Y-124345827D01*
X151130224Y-124341050D01*
X151108926Y-124333857D01*
X151096126Y-124327867D01*
X151068000Y-124311233D01*
X151050068Y-124296168D01*
X151047447Y-124291897D01*
X151052976Y-124274263D01*
X151079260Y-124257192D01*
X151124478Y-124241458D01*
X151186808Y-124227838D01*
X151205171Y-124224804D01*
X151301090Y-124209738D01*
X151377641Y-124197146D01*
X151437780Y-124186111D01*
X151484460Y-124175720D01*
X151520637Y-124165056D01*
X151549265Y-124153205D01*
X151573298Y-124139251D01*
X151595692Y-124122281D01*
X151619402Y-124101378D01*
X151627380Y-124094049D01*
X151655353Y-124066699D01*
X151670160Y-124045029D01*
X151675952Y-124020232D01*
X151676889Y-123988983D01*
X151666575Y-123927705D01*
X151635752Y-123875640D01*
X151584595Y-123832958D01*
X151513283Y-123799825D01*
X151462400Y-123784964D01*
X151407100Y-123775366D01*
X151340853Y-123769936D01*
X151267706Y-123768367D01*
X151191703Y-123770351D01*
G36*
X151340853Y-123769936D02*
G01*
X151407100Y-123775366D01*
X151462400Y-123784964D01*
X151513283Y-123799825D01*
X151584595Y-123832958D01*
X151635752Y-123875640D01*
X151666575Y-123927705D01*
X151676889Y-123988983D01*
X151675952Y-124020232D01*
X151670160Y-124045029D01*
X151655353Y-124066699D01*
X151627380Y-124094049D01*
X151619402Y-124101378D01*
X151595692Y-124122281D01*
X151573298Y-124139251D01*
X151549265Y-124153205D01*
X151520637Y-124165056D01*
X151484460Y-124175720D01*
X151437780Y-124186111D01*
X151377641Y-124197146D01*
X151301090Y-124209738D01*
X151205171Y-124224804D01*
X151186808Y-124227838D01*
X151124478Y-124241458D01*
X151079260Y-124257192D01*
X151052976Y-124274263D01*
X151047447Y-124291897D01*
X151050068Y-124296168D01*
X151068000Y-124311233D01*
X151096126Y-124327867D01*
X151108926Y-124333857D01*
X151130224Y-124341050D01*
X151156610Y-124345827D01*
X151192454Y-124348646D01*
X151242128Y-124349964D01*
X151310000Y-124350237D01*
X151327785Y-124350164D01*
X151395406Y-124349053D01*
X151460345Y-124346828D01*
X151515970Y-124343762D01*
X151555651Y-124340127D01*
X151591162Y-124336059D01*
X151620415Y-124335276D01*
X151639315Y-124339876D01*
X151654429Y-124350551D01*
X151658085Y-124354144D01*
X151674427Y-124385918D01*
X151673107Y-124421572D01*
X151654150Y-124452190D01*
X151633780Y-124463796D01*
X151597796Y-124476491D01*
X151555372Y-124486541D01*
X151551922Y-124487140D01*
X151509252Y-124492356D01*
X151451866Y-124496730D01*
X151386849Y-124499818D01*
X151321289Y-124501177D01*
X151305057Y-124501218D01*
X151206744Y-124498741D01*
X151126692Y-124490735D01*
X151061513Y-124476203D01*
X151007817Y-124454149D01*
X150962216Y-124423576D01*
X150921323Y-124383486D01*
X150901202Y-124357259D01*
X150889576Y-124327712D01*
X150886667Y-124287995D01*
X150886808Y-124276026D01*
X150890681Y-124243345D01*
X150903065Y-124216819D01*
X150928230Y-124185971D01*
X150949442Y-124163831D01*
X150975838Y-124141285D01*
X151005555Y-124122917D01*
X151041785Y-124107661D01*
X151087717Y-124094449D01*
X151146544Y-124082214D01*
X151221456Y-124069889D01*
X151315645Y-124056406D01*
X151360957Y-124049396D01*
X151428911Y-124034837D01*
X151478047Y-124018337D01*
X151507614Y-124000439D01*
X151516864Y-123981685D01*
X151505048Y-123962615D01*
X151471416Y-123943771D01*
X151468370Y-123942557D01*
X151422011Y-123930479D01*
X151359361Y-123922279D01*
X151285927Y-123918119D01*
X151207217Y-123918161D01*
X151128739Y-123922569D01*
X151056000Y-123931505D01*
X151052073Y-123932154D01*
X151003257Y-123939861D01*
X150971005Y-123943473D01*
X150950008Y-123942876D01*
X150934954Y-123937954D01*
X150920534Y-123928596D01*
X150919364Y-123927725D01*
X150894847Y-123897351D01*
X150890054Y-123861850D01*
X150905860Y-123827269D01*
X150910406Y-123822813D01*
X150940020Y-123807673D01*
X150987002Y-123794550D01*
X151047306Y-123783750D01*
X151116888Y-123775581D01*
X151191703Y-123770351D01*
X151267706Y-123768367D01*
X151340853Y-123769936D01*
G37*
X147171571Y-119449071D02*
X147011430Y-119470245D01*
X146847490Y-119510385D01*
X146677687Y-119569889D01*
X146499957Y-119649154D01*
X146488690Y-119654699D01*
X146430995Y-119682725D01*
X146379448Y-119706802D01*
X146337809Y-119725249D01*
X146309838Y-119736386D01*
X146300267Y-119738933D01*
X146281050Y-119743941D01*
X146276439Y-119748147D01*
X146281542Y-119758580D01*
X146297582Y-119784868D01*
X146322712Y-119824257D01*
X146355086Y-119873991D01*
X146392857Y-119931315D01*
X146434178Y-119993476D01*
X146477202Y-120057718D01*
X146520083Y-120121285D01*
X146560974Y-120181425D01*
X146598029Y-120235380D01*
X146629400Y-120280397D01*
X146653241Y-120313721D01*
X146667706Y-120332597D01*
X146669691Y-120334787D01*
X146679809Y-120330138D01*
X146702150Y-120312962D01*
X146732720Y-120286440D01*
X146748464Y-120271964D01*
X146844953Y-120196682D01*
X146951664Y-120141241D01*
X147067168Y-120106141D01*
X147190038Y-120091880D01*
X147259439Y-120093051D01*
X147380577Y-120110212D01*
X147489795Y-120146094D01*
X147587418Y-120200959D01*
X147673772Y-120275070D01*
X147749185Y-120368688D01*
X147813982Y-120482076D01*
X147851399Y-120568667D01*
X147895252Y-120704366D01*
X147927572Y-120851850D01*
X147948443Y-121007314D01*
X147957949Y-121166956D01*
X147956173Y-121326973D01*
X147943197Y-121483561D01*
X147919106Y-121632918D01*
X147883982Y-121771240D01*
X147837908Y-121894724D01*
X147821627Y-121928978D01*
X147753380Y-122043064D01*
X147672921Y-122139557D01*
X147581430Y-122217670D01*
X147480089Y-122276617D01*
X147370080Y-122315612D01*
X147252585Y-122333868D01*
X147211117Y-122335211D01*
X147089559Y-122324290D01*
X146969122Y-122291474D01*
X146851334Y-122237439D01*
X146737723Y-122162865D01*
X146646315Y-122084539D01*
X146599785Y-122040008D01*
X146418517Y-122337271D01*
X146373420Y-122411433D01*
X146332181Y-122479646D01*
X146296265Y-122539459D01*
X146267134Y-122588420D01*
X146246250Y-122624079D01*
X146235076Y-122643984D01*
X146233625Y-122647079D01*
X146241854Y-122656718D01*
X146267433Y-122673999D01*
X146307127Y-122697283D01*
X146357703Y-122724934D01*
X146415926Y-122755315D01*
X146478563Y-122786790D01*
X146542379Y-122817722D01*
X146604140Y-122846473D01*
X146660612Y-122871408D01*
X146708562Y-122890889D01*
X146732014Y-122899318D01*
X146865779Y-122937133D01*
X147003673Y-122962136D01*
X147151378Y-122975140D01*
X147278167Y-122977468D01*
X147346122Y-122976373D01*
X147411723Y-122974275D01*
X147469153Y-122971434D01*
X147512597Y-122968106D01*
X147526702Y-122966422D01*
X147665716Y-122937587D01*
X147807243Y-122892468D01*
X147944725Y-122833750D01*
X148071606Y-122764120D01*
X148149111Y-122711441D01*
X148276519Y-122603239D01*
X148394822Y-122476671D01*
X148501828Y-122334866D01*
X148595348Y-122180951D01*
X148673190Y-122018053D01*
X148717044Y-121900756D01*
X148767292Y-121717128D01*
X148800791Y-121522581D01*
X148817551Y-121321325D01*
X148817584Y-121117568D01*
X148800899Y-120915521D01*
X148767507Y-120719392D01*
X148717420Y-120533391D01*
X148713603Y-120521803D01*
X148650719Y-120359750D01*
X148573972Y-120211832D01*
X148480758Y-120073865D01*
X148368473Y-119941661D01*
X148324608Y-119896399D01*
X148188466Y-119772457D01*
X148048509Y-119669915D01*
X147902589Y-119587656D01*
X147748558Y-119524564D01*
X147584268Y-119479523D01*
X147488711Y-119462033D01*
X147329977Y-119446466D01*
X147171571Y-119449071D01*
G36*
X147488711Y-119462033D02*
G01*
X147584268Y-119479523D01*
X147748558Y-119524564D01*
X147902589Y-119587656D01*
X148048509Y-119669915D01*
X148188466Y-119772457D01*
X148324608Y-119896399D01*
X148368473Y-119941661D01*
X148480758Y-120073865D01*
X148573972Y-120211832D01*
X148650719Y-120359750D01*
X148713603Y-120521803D01*
X148717420Y-120533391D01*
X148767507Y-120719392D01*
X148800899Y-120915521D01*
X148817584Y-121117568D01*
X148817551Y-121321325D01*
X148800791Y-121522581D01*
X148767292Y-121717128D01*
X148717044Y-121900756D01*
X148673190Y-122018053D01*
X148595348Y-122180951D01*
X148501828Y-122334866D01*
X148394822Y-122476671D01*
X148276519Y-122603239D01*
X148149111Y-122711441D01*
X148071606Y-122764120D01*
X147944725Y-122833750D01*
X147807243Y-122892468D01*
X147665716Y-122937587D01*
X147526702Y-122966422D01*
X147512597Y-122968106D01*
X147469153Y-122971434D01*
X147411723Y-122974275D01*
X147346122Y-122976373D01*
X147278167Y-122977468D01*
X147151378Y-122975140D01*
X147003673Y-122962136D01*
X146865779Y-122937133D01*
X146732014Y-122899318D01*
X146708562Y-122890889D01*
X146660612Y-122871408D01*
X146604140Y-122846473D01*
X146542379Y-122817722D01*
X146478563Y-122786790D01*
X146415926Y-122755315D01*
X146357703Y-122724934D01*
X146307127Y-122697283D01*
X146267433Y-122673999D01*
X146241854Y-122656718D01*
X146233625Y-122647079D01*
X146235076Y-122643984D01*
X146246250Y-122624079D01*
X146267134Y-122588420D01*
X146296265Y-122539459D01*
X146332181Y-122479646D01*
X146373420Y-122411433D01*
X146418517Y-122337271D01*
X146599785Y-122040008D01*
X146646315Y-122084539D01*
X146737723Y-122162865D01*
X146851334Y-122237439D01*
X146969122Y-122291474D01*
X147089559Y-122324290D01*
X147211117Y-122335211D01*
X147252585Y-122333868D01*
X147370080Y-122315612D01*
X147480089Y-122276617D01*
X147581430Y-122217670D01*
X147672921Y-122139557D01*
X147753380Y-122043064D01*
X147821627Y-121928978D01*
X147837908Y-121894724D01*
X147883982Y-121771240D01*
X147919106Y-121632918D01*
X147943197Y-121483561D01*
X147956173Y-121326973D01*
X147957949Y-121166956D01*
X147948443Y-121007314D01*
X147927572Y-120851850D01*
X147895252Y-120704366D01*
X147851399Y-120568667D01*
X147813982Y-120482076D01*
X147749185Y-120368688D01*
X147673772Y-120275070D01*
X147587418Y-120200959D01*
X147489795Y-120146094D01*
X147380577Y-120110212D01*
X147259439Y-120093051D01*
X147190038Y-120091880D01*
X147067168Y-120106141D01*
X146951664Y-120141241D01*
X146844953Y-120196682D01*
X146748464Y-120271964D01*
X146732720Y-120286440D01*
X146702150Y-120312962D01*
X146679809Y-120330138D01*
X146669691Y-120334787D01*
X146667706Y-120332597D01*
X146653241Y-120313721D01*
X146629400Y-120280397D01*
X146598029Y-120235380D01*
X146560974Y-120181425D01*
X146520083Y-120121285D01*
X146477202Y-120057718D01*
X146434178Y-119993476D01*
X146392857Y-119931315D01*
X146355086Y-119873991D01*
X146322712Y-119824257D01*
X146297582Y-119784868D01*
X146281542Y-119758580D01*
X146276439Y-119748147D01*
X146281050Y-119743941D01*
X146300267Y-119738933D01*
X146309838Y-119736386D01*
X146337809Y-119725249D01*
X146379448Y-119706802D01*
X146430995Y-119682725D01*
X146488690Y-119654699D01*
X146499957Y-119649154D01*
X146677687Y-119569889D01*
X146847490Y-119510385D01*
X147011430Y-119470245D01*
X147171571Y-119449071D01*
X147329977Y-119446466D01*
X147488711Y-119462033D01*
G37*
X141313493Y-120972245D02*
X141313474Y-121206662D01*
X141313448Y-121419603D01*
X141313375Y-121612168D01*
X141313218Y-121785459D01*
X141312936Y-121940576D01*
X141312491Y-122078620D01*
X141311844Y-122200692D01*
X141310955Y-122307894D01*
X141309787Y-122401326D01*
X141308299Y-122482090D01*
X141306454Y-122551286D01*
X141304211Y-122610015D01*
X141301531Y-122659379D01*
X141298377Y-122700478D01*
X141294708Y-122734413D01*
X141290487Y-122762286D01*
X141285673Y-122785198D01*
X141280227Y-122804249D01*
X141274112Y-122820540D01*
X141267288Y-122835173D01*
X141259715Y-122849249D01*
X141251355Y-122863868D01*
X141246161Y-122872974D01*
X141211896Y-122933689D01*
X142070045Y-122933689D01*
X142070045Y-122837733D01*
X142070776Y-122794370D01*
X142072728Y-122761205D01*
X142075537Y-122743424D01*
X142076779Y-122741778D01*
X142088201Y-122748662D01*
X142110916Y-122766505D01*
X142133615Y-122785879D01*
X142188200Y-122826614D01*
X142257679Y-122867617D01*
X142334730Y-122905123D01*
X142412035Y-122935364D01*
X142442887Y-122945012D01*
X142511384Y-122959578D01*
X142594236Y-122969539D01*
X142683629Y-122974583D01*
X142771752Y-122974396D01*
X142850793Y-122968666D01*
X142888489Y-122962858D01*
X143026586Y-122924797D01*
X143153887Y-122867073D01*
X143269708Y-122790211D01*
X143373363Y-122694739D01*
X143464167Y-122581179D01*
X143530969Y-122470381D01*
X143585836Y-122353625D01*
X143627837Y-122234276D01*
X143657833Y-122108283D01*
X143676689Y-121971594D01*
X143685268Y-121820158D01*
X143685994Y-121742711D01*
X143683900Y-121685934D01*
X142854783Y-121685934D01*
X142854576Y-121779002D01*
X142851663Y-121866692D01*
X142846000Y-121943772D01*
X142837545Y-122005009D01*
X142834962Y-122017350D01*
X142803160Y-122124633D01*
X142761502Y-122211658D01*
X142709637Y-122278642D01*
X142647219Y-122325805D01*
X142573900Y-122353365D01*
X142489331Y-122361541D01*
X142393165Y-122350551D01*
X142329689Y-122334829D01*
X142280546Y-122316639D01*
X142226417Y-122290791D01*
X142185756Y-122267089D01*
X142115200Y-122220721D01*
X142115200Y-121070530D01*
X142182608Y-121026962D01*
X142261133Y-120986040D01*
X142345319Y-120959389D01*
X142430443Y-120947465D01*
X142511784Y-120950722D01*
X142584620Y-120969615D01*
X142616574Y-120985184D01*
X142674499Y-121028181D01*
X142723456Y-121084953D01*
X142764610Y-121157575D01*
X142799126Y-121248121D01*
X142828167Y-121358666D01*
X142829448Y-121364533D01*
X142839619Y-121426788D01*
X142847261Y-121504594D01*
X142852330Y-121592720D01*
X142854783Y-121685934D01*
X143683900Y-121685934D01*
X143678143Y-121529895D01*
X143656198Y-121334059D01*
X143620214Y-121155332D01*
X143570241Y-120993845D01*
X143506332Y-120849726D01*
X143428538Y-120723106D01*
X143336911Y-120614115D01*
X143231503Y-120522883D01*
X143186338Y-120491932D01*
X143085389Y-120435785D01*
X142982099Y-120396174D01*
X142872011Y-120372014D01*
X142750670Y-120362219D01*
X142658164Y-120363265D01*
X142528510Y-120374231D01*
X142415916Y-120396046D01*
X142317125Y-120429714D01*
X142228879Y-120476236D01*
X142180014Y-120510448D01*
X142150647Y-120532362D01*
X142128957Y-120547333D01*
X142120747Y-120551733D01*
X142119132Y-120540904D01*
X142117841Y-120510251D01*
X142116862Y-120462526D01*
X142116183Y-120400479D01*
X142115790Y-120326862D01*
X142115670Y-120244427D01*
X142115812Y-120155925D01*
X142116203Y-120064107D01*
X142116829Y-119971724D01*
X142117680Y-119881528D01*
X142118740Y-119796271D01*
X142119999Y-119718703D01*
X142121444Y-119651576D01*
X142123062Y-119597641D01*
X142124839Y-119559650D01*
X142125331Y-119552667D01*
X142132908Y-119482251D01*
X142144469Y-119427102D01*
X142162208Y-119379981D01*
X142188318Y-119333647D01*
X142194585Y-119324067D01*
X142219017Y-119287378D01*
X141313689Y-119287378D01*
X141313493Y-120972245D01*
G36*
X143685994Y-121742711D02*
G01*
X143685268Y-121820158D01*
X143676689Y-121971594D01*
X143657833Y-122108283D01*
X143627837Y-122234276D01*
X143585836Y-122353625D01*
X143530969Y-122470381D01*
X143464167Y-122581179D01*
X143373363Y-122694739D01*
X143269708Y-122790211D01*
X143153887Y-122867073D01*
X143026586Y-122924797D01*
X142888489Y-122962858D01*
X142850793Y-122968666D01*
X142771752Y-122974396D01*
X142683629Y-122974583D01*
X142594236Y-122969539D01*
X142511384Y-122959578D01*
X142442887Y-122945012D01*
X142412035Y-122935364D01*
X142334730Y-122905123D01*
X142257679Y-122867617D01*
X142188200Y-122826614D01*
X142133615Y-122785879D01*
X142110916Y-122766505D01*
X142088201Y-122748662D01*
X142076779Y-122741778D01*
X142075537Y-122743424D01*
X142072728Y-122761205D01*
X142070776Y-122794370D01*
X142070045Y-122837733D01*
X142070045Y-122933689D01*
X141211896Y-122933689D01*
X141246161Y-122872974D01*
X141251355Y-122863868D01*
X141259715Y-122849249D01*
X141267288Y-122835173D01*
X141274112Y-122820540D01*
X141280227Y-122804249D01*
X141285673Y-122785198D01*
X141290487Y-122762286D01*
X141294708Y-122734413D01*
X141298377Y-122700478D01*
X141301531Y-122659379D01*
X141304211Y-122610015D01*
X141306454Y-122551286D01*
X141308299Y-122482090D01*
X141309787Y-122401326D01*
X141310955Y-122307894D01*
X141311844Y-122200692D01*
X141312491Y-122078620D01*
X141312936Y-121940576D01*
X141313218Y-121785459D01*
X141313375Y-121612168D01*
X141313448Y-121419603D01*
X141313474Y-121206662D01*
X141313485Y-121070530D01*
X142115200Y-121070530D01*
X142115200Y-122220721D01*
X142185756Y-122267089D01*
X142226417Y-122290791D01*
X142280546Y-122316639D01*
X142329689Y-122334829D01*
X142393165Y-122350551D01*
X142489331Y-122361541D01*
X142573900Y-122353365D01*
X142647219Y-122325805D01*
X142709637Y-122278642D01*
X142761502Y-122211658D01*
X142803160Y-122124633D01*
X142834962Y-122017350D01*
X142837545Y-122005009D01*
X142846000Y-121943772D01*
X142851663Y-121866692D01*
X142854576Y-121779002D01*
X142854783Y-121685934D01*
X142852330Y-121592720D01*
X142847261Y-121504594D01*
X142839619Y-121426788D01*
X142829448Y-121364533D01*
X142828167Y-121358666D01*
X142799126Y-121248121D01*
X142764610Y-121157575D01*
X142723456Y-121084953D01*
X142674499Y-121028181D01*
X142616574Y-120985184D01*
X142584620Y-120969615D01*
X142511784Y-120950722D01*
X142430443Y-120947465D01*
X142345319Y-120959389D01*
X142261133Y-120986040D01*
X142182608Y-121026962D01*
X142115200Y-121070530D01*
X141313485Y-121070530D01*
X141313493Y-120972245D01*
X141313689Y-119287378D01*
X142219017Y-119287378D01*
X142194585Y-119324067D01*
X142188318Y-119333647D01*
X142162208Y-119379981D01*
X142144469Y-119427102D01*
X142132908Y-119482251D01*
X142125331Y-119552667D01*
X142124839Y-119559650D01*
X142123062Y-119597641D01*
X142121444Y-119651576D01*
X142119999Y-119718703D01*
X142118740Y-119796271D01*
X142117680Y-119881528D01*
X142116829Y-119971724D01*
X142116203Y-120064107D01*
X142115812Y-120155925D01*
X142115670Y-120244427D01*
X142115790Y-120326862D01*
X142116183Y-120400479D01*
X142116862Y-120462526D01*
X142117841Y-120510251D01*
X142119132Y-120540904D01*
X142120747Y-120551733D01*
X142128957Y-120547333D01*
X142150647Y-120532362D01*
X142180014Y-120510448D01*
X142228879Y-120476236D01*
X142317125Y-120429714D01*
X142415916Y-120396046D01*
X142528510Y-120374231D01*
X142658164Y-120363265D01*
X142750670Y-120362219D01*
X142872011Y-120372014D01*
X142982099Y-120396174D01*
X143085389Y-120435785D01*
X143186338Y-120491932D01*
X143231503Y-120522883D01*
X143336911Y-120614115D01*
X143428538Y-120723106D01*
X143506332Y-120849726D01*
X143570241Y-120993845D01*
X143620214Y-121155332D01*
X143656198Y-121334059D01*
X143678143Y-121529895D01*
X143683900Y-121685934D01*
X143685994Y-121742711D01*
G37*
X144826426Y-120366552D02*
X144674508Y-120386567D01*
X144539244Y-120420202D01*
X144419761Y-120467725D01*
X144315185Y-120529405D01*
X144237576Y-120592965D01*
X144168735Y-120667099D01*
X144114994Y-120746871D01*
X144072090Y-120839091D01*
X144056616Y-120882161D01*
X144043756Y-120921142D01*
X144032554Y-120957289D01*
X144022880Y-120992434D01*
X144014604Y-121028410D01*
X144007597Y-121067050D01*
X144001728Y-121110185D01*
X143996869Y-121159649D01*
X143992890Y-121217273D01*
X143989660Y-121284891D01*
X143987051Y-121364334D01*
X143984933Y-121457436D01*
X143983176Y-121566027D01*
X143981651Y-121691942D01*
X143980228Y-121837012D01*
X143978975Y-121979778D01*
X143977649Y-122135968D01*
X143976444Y-122271239D01*
X143975234Y-122387246D01*
X143973894Y-122485645D01*
X143972300Y-122568093D01*
X143970325Y-122636246D01*
X143967844Y-122691760D01*
X143964731Y-122736292D01*
X143960862Y-122771498D01*
X143956111Y-122799034D01*
X143950352Y-122820556D01*
X143943461Y-122837722D01*
X143935311Y-122852186D01*
X143925777Y-122865606D01*
X143914734Y-122879638D01*
X143910434Y-122885071D01*
X143894614Y-122907910D01*
X143887578Y-122923463D01*
X143887556Y-122923922D01*
X143898433Y-122926121D01*
X143929418Y-122928147D01*
X143978043Y-122929942D01*
X144041837Y-122931451D01*
X144118331Y-122932616D01*
X144205056Y-122933380D01*
X144299543Y-122933686D01*
X144310450Y-122933689D01*
X144733343Y-122933689D01*
X144736605Y-122837622D01*
X144739867Y-122741556D01*
X144801956Y-122792543D01*
X144899286Y-122860057D01*
X145009187Y-122914749D01*
X145095651Y-122944978D01*
X145164722Y-122959666D01*
X145248075Y-122969659D01*
X145337841Y-122974646D01*
X145426155Y-122974313D01*
X145505149Y-122968351D01*
X145541378Y-122962638D01*
X145681397Y-122924776D01*
X145807822Y-122869932D01*
X145919740Y-122798924D01*
X146016238Y-122712568D01*
X146096400Y-122611679D01*
X146159313Y-122497076D01*
X146203688Y-122370984D01*
X146216022Y-122314401D01*
X146223632Y-122252202D01*
X146227261Y-122177363D01*
X146227755Y-122143467D01*
X146227690Y-122140282D01*
X145467752Y-122140282D01*
X145458459Y-122215333D01*
X145430272Y-122279160D01*
X145381803Y-122334798D01*
X145376746Y-122339211D01*
X145328452Y-122374037D01*
X145276743Y-122396620D01*
X145216011Y-122408540D01*
X145140648Y-122411383D01*
X145122541Y-122410978D01*
X145068722Y-122408325D01*
X145028692Y-122402909D01*
X144993676Y-122392745D01*
X144954897Y-122375850D01*
X144944255Y-122370672D01*
X144883604Y-122334844D01*
X144836785Y-122292212D01*
X144824048Y-122276973D01*
X144779378Y-122220462D01*
X144779378Y-122024586D01*
X144779914Y-121945939D01*
X144781604Y-121887988D01*
X144784572Y-121848875D01*
X144788943Y-121826741D01*
X144793028Y-121820274D01*
X144808953Y-121817111D01*
X144842736Y-121814488D01*
X144889660Y-121812655D01*
X144945007Y-121811857D01*
X144953894Y-121811842D01*
X145074670Y-121817096D01*
X145177340Y-121833263D01*
X145263894Y-121860961D01*
X145336319Y-121900808D01*
X145391249Y-121947758D01*
X145435796Y-122005645D01*
X145460520Y-122068693D01*
X145467752Y-122140282D01*
X146227690Y-122140282D01*
X146225822Y-122049712D01*
X146217478Y-121970812D01*
X146201232Y-121899590D01*
X146175595Y-121828864D01*
X146151599Y-121776493D01*
X146092980Y-121681196D01*
X146014883Y-121593170D01*
X145919685Y-121514017D01*
X145809762Y-121445340D01*
X145687490Y-121388741D01*
X145555245Y-121345821D01*
X145490578Y-121330882D01*
X145354396Y-121308777D01*
X145205951Y-121294194D01*
X145054495Y-121287813D01*
X144927936Y-121289445D01*
X144766050Y-121296224D01*
X144773470Y-121237245D01*
X144792762Y-121138092D01*
X144823896Y-121057372D01*
X144867731Y-120994466D01*
X144925129Y-120948756D01*
X144996952Y-120919622D01*
X145084059Y-120906447D01*
X145187314Y-120908611D01*
X145225289Y-120912612D01*
X145366480Y-120937780D01*
X145503293Y-120978814D01*
X145597822Y-121016815D01*
X145642982Y-121036190D01*
X145681415Y-121051760D01*
X145707766Y-121061405D01*
X145715454Y-121063452D01*
X145725198Y-121054374D01*
X145741917Y-121025405D01*
X145765768Y-120976217D01*
X145796907Y-120906484D01*
X145835493Y-120815879D01*
X145842090Y-120800089D01*
X145872147Y-120727772D01*
X145899126Y-120662425D01*
X145921864Y-120606906D01*
X145939194Y-120564072D01*
X145949952Y-120536781D01*
X145953059Y-120527942D01*
X145943060Y-120523187D01*
X145916783Y-120517910D01*
X145888511Y-120514231D01*
X145858354Y-120509474D01*
X145810567Y-120500028D01*
X145749388Y-120486820D01*
X145679054Y-120470776D01*
X145603806Y-120452820D01*
X145575245Y-120445797D01*
X145470184Y-120420209D01*
X145382520Y-120400147D01*
X145307932Y-120384969D01*
X145242097Y-120374035D01*
X145180693Y-120366704D01*
X145119398Y-120362335D01*
X145053890Y-120360287D01*
X144995872Y-120359889D01*
X144826426Y-120366552D01*
G36*
X146227755Y-122143467D02*
G01*
X146227261Y-122177363D01*
X146223632Y-122252202D01*
X146216022Y-122314401D01*
X146203688Y-122370984D01*
X146159313Y-122497076D01*
X146096400Y-122611679D01*
X146016238Y-122712568D01*
X145919740Y-122798924D01*
X145807822Y-122869932D01*
X145681397Y-122924776D01*
X145541378Y-122962638D01*
X145505149Y-122968351D01*
X145426155Y-122974313D01*
X145337841Y-122974646D01*
X145248075Y-122969659D01*
X145164722Y-122959666D01*
X145095651Y-122944978D01*
X145009187Y-122914749D01*
X144899286Y-122860057D01*
X144801956Y-122792543D01*
X144739867Y-122741556D01*
X144736605Y-122837622D01*
X144733343Y-122933689D01*
X144310450Y-122933689D01*
X144299543Y-122933686D01*
X144205056Y-122933380D01*
X144118331Y-122932616D01*
X144041837Y-122931451D01*
X143978043Y-122929942D01*
X143929418Y-122928147D01*
X143898433Y-122926121D01*
X143887556Y-122923922D01*
X143887578Y-122923463D01*
X143894614Y-122907910D01*
X143910434Y-122885071D01*
X143914734Y-122879638D01*
X143925777Y-122865606D01*
X143935311Y-122852186D01*
X143943461Y-122837722D01*
X143950352Y-122820556D01*
X143956111Y-122799034D01*
X143960862Y-122771498D01*
X143964731Y-122736292D01*
X143967844Y-122691760D01*
X143970325Y-122636246D01*
X143972300Y-122568093D01*
X143973894Y-122485645D01*
X143975234Y-122387246D01*
X143976444Y-122271239D01*
X143977649Y-122135968D01*
X143978595Y-122024586D01*
X144779378Y-122024586D01*
X144779378Y-122220462D01*
X144824048Y-122276973D01*
X144836785Y-122292212D01*
X144883604Y-122334844D01*
X144944255Y-122370672D01*
X144954897Y-122375850D01*
X144993676Y-122392745D01*
X145028692Y-122402909D01*
X145068722Y-122408325D01*
X145122541Y-122410978D01*
X145140648Y-122411383D01*
X145216011Y-122408540D01*
X145276743Y-122396620D01*
X145328452Y-122374037D01*
X145376746Y-122339211D01*
X145381803Y-122334798D01*
X145430272Y-122279160D01*
X145458459Y-122215333D01*
X145467752Y-122140282D01*
X145460520Y-122068693D01*
X145435796Y-122005645D01*
X145391249Y-121947758D01*
X145336319Y-121900808D01*
X145263894Y-121860961D01*
X145177340Y-121833263D01*
X145074670Y-121817096D01*
X144953894Y-121811842D01*
X144945007Y-121811857D01*
X144889660Y-121812655D01*
X144842736Y-121814488D01*
X144808953Y-121817111D01*
X144793028Y-121820274D01*
X144788943Y-121826741D01*
X144784572Y-121848875D01*
X144781604Y-121887988D01*
X144779914Y-121945939D01*
X144779378Y-122024586D01*
X143978595Y-122024586D01*
X143978975Y-121979778D01*
X143980228Y-121837012D01*
X143981651Y-121691942D01*
X143983176Y-121566027D01*
X143984933Y-121457436D01*
X143987051Y-121364334D01*
X143989660Y-121284891D01*
X143992890Y-121217273D01*
X143996869Y-121159649D01*
X144001728Y-121110185D01*
X144007597Y-121067050D01*
X144014604Y-121028410D01*
X144022880Y-120992434D01*
X144032554Y-120957289D01*
X144043756Y-120921142D01*
X144056616Y-120882161D01*
X144072090Y-120839091D01*
X144114994Y-120746871D01*
X144168735Y-120667099D01*
X144237576Y-120592965D01*
X144315185Y-120529405D01*
X144419761Y-120467725D01*
X144539244Y-120420202D01*
X144674508Y-120386567D01*
X144826426Y-120366552D01*
X144995872Y-120359889D01*
X145053890Y-120360287D01*
X145119398Y-120362335D01*
X145180693Y-120366704D01*
X145242097Y-120374035D01*
X145307932Y-120384969D01*
X145382520Y-120400147D01*
X145470184Y-120420209D01*
X145575245Y-120445797D01*
X145603806Y-120452820D01*
X145679054Y-120470776D01*
X145749388Y-120486820D01*
X145810567Y-120500028D01*
X145858354Y-120509474D01*
X145888511Y-120514231D01*
X145916783Y-120517910D01*
X145943060Y-120523187D01*
X145953059Y-120527942D01*
X145949952Y-120536781D01*
X145939194Y-120564072D01*
X145921864Y-120606906D01*
X145899126Y-120662425D01*
X145872147Y-120727772D01*
X145842090Y-120800089D01*
X145835493Y-120815879D01*
X145796907Y-120906484D01*
X145765768Y-120976217D01*
X145741917Y-121025405D01*
X145725198Y-121054374D01*
X145715454Y-121063452D01*
X145707766Y-121061405D01*
X145681415Y-121051760D01*
X145642982Y-121036190D01*
X145597822Y-121016815D01*
X145503293Y-120978814D01*
X145366480Y-120937780D01*
X145225289Y-120912612D01*
X145187314Y-120908611D01*
X145084059Y-120906447D01*
X144996952Y-120919622D01*
X144925129Y-120948756D01*
X144867731Y-120994466D01*
X144823896Y-121057372D01*
X144792762Y-121138092D01*
X144773470Y-121237245D01*
X144766050Y-121296224D01*
X144927936Y-121289445D01*
X145054495Y-121287813D01*
X145205951Y-121294194D01*
X145354396Y-121308777D01*
X145490578Y-121330882D01*
X145555245Y-121345821D01*
X145687490Y-121388741D01*
X145809762Y-121445340D01*
X145919685Y-121514017D01*
X146014883Y-121593170D01*
X146092980Y-121681196D01*
X146151599Y-121776493D01*
X146175595Y-121828864D01*
X146201232Y-121899590D01*
X146217478Y-121970812D01*
X146225822Y-122049712D01*
X146227690Y-122140282D01*
X146227755Y-122143467D01*
G37*
X150446400Y-118989054D02*
X150435535Y-119102993D01*
X150403918Y-119210616D01*
X150353015Y-119309615D01*
X150284293Y-119397684D01*
X150199219Y-119472516D01*
X150102232Y-119530384D01*
X149995964Y-119570005D01*
X149888950Y-119588573D01*
X149783300Y-119587434D01*
X149681125Y-119567930D01*
X149584534Y-119531406D01*
X149495638Y-119479205D01*
X149416546Y-119412673D01*
X149349369Y-119333152D01*
X149296217Y-119241987D01*
X149259199Y-119140523D01*
X149240427Y-119030102D01*
X149238489Y-118980206D01*
X149238489Y-118892267D01*
X149186560Y-118892267D01*
X149150253Y-118895111D01*
X149123355Y-118906911D01*
X149096249Y-118930649D01*
X149057867Y-118969031D01*
X149057867Y-121160602D01*
X149057876Y-121422739D01*
X149057908Y-121663241D01*
X149057972Y-121883048D01*
X149058076Y-122083101D01*
X149058227Y-122264344D01*
X149058434Y-122427716D01*
X149058706Y-122574160D01*
X149059050Y-122704617D01*
X149059474Y-122820029D01*
X149059987Y-122921338D01*
X149060597Y-123009484D01*
X149061312Y-123085410D01*
X149062140Y-123150057D01*
X149063089Y-123204367D01*
X149064167Y-123249280D01*
X149065383Y-123285740D01*
X149066745Y-123314687D01*
X149068261Y-123337063D01*
X149069938Y-123353809D01*
X149071786Y-123365868D01*
X149073813Y-123374180D01*
X149076025Y-123379687D01*
X149077108Y-123381537D01*
X149081271Y-123388549D01*
X149084805Y-123394996D01*
X149088635Y-123400900D01*
X149093682Y-123406286D01*
X149100871Y-123411178D01*
X149111123Y-123415598D01*
X149125364Y-123419572D01*
X149144514Y-123423121D01*
X149169499Y-123426270D01*
X149201240Y-123429042D01*
X149240662Y-123431461D01*
X149288686Y-123433551D01*
X149346237Y-123435335D01*
X149414237Y-123436837D01*
X149493610Y-123438080D01*
X149585279Y-123439089D01*
X149690166Y-123439885D01*
X149809196Y-123440494D01*
X149943290Y-123440939D01*
X150093373Y-123441243D01*
X150260367Y-123441430D01*
X150445196Y-123441524D01*
X150648783Y-123441548D01*
X150872050Y-123441525D01*
X151115922Y-123441480D01*
X151381321Y-123441437D01*
X151419704Y-123441432D01*
X151686682Y-123441389D01*
X151932002Y-123441318D01*
X152156583Y-123441213D01*
X152361345Y-123441066D01*
X152547206Y-123440869D01*
X152715088Y-123440616D01*
X152865908Y-123440300D01*
X153000587Y-123439913D01*
X153120044Y-123439447D01*
X153225199Y-123438897D01*
X153316971Y-123438253D01*
X153396279Y-123437511D01*
X153464043Y-123436661D01*
X153521182Y-123435697D01*
X153568617Y-123434611D01*
X153607266Y-123433397D01*
X153638049Y-123432047D01*
X153661885Y-123430555D01*
X153679694Y-123428911D01*
X153692395Y-123427111D01*
X153700908Y-123425145D01*
X153705266Y-123423477D01*
X153713728Y-123419906D01*
X153721497Y-123417270D01*
X153728602Y-123414634D01*
X153735073Y-123411062D01*
X153740939Y-123405621D01*
X153746229Y-123397375D01*
X153750974Y-123385390D01*
X153755202Y-123368731D01*
X153758943Y-123346463D01*
X153762227Y-123317652D01*
X153765083Y-123281363D01*
X153767540Y-123236661D01*
X153769629Y-123182611D01*
X153771378Y-123118279D01*
X153772817Y-123042730D01*
X153773976Y-122955030D01*
X153774883Y-122854243D01*
X153775569Y-122739434D01*
X153776063Y-122609670D01*
X153776395Y-122464015D01*
X153776593Y-122301535D01*
X153776687Y-122121295D01*
X153776708Y-121922360D01*
X153776685Y-121703796D01*
X153776646Y-121464668D01*
X153776622Y-121204040D01*
X153776622Y-121161889D01*
X153776636Y-120898992D01*
X153776661Y-120657732D01*
X153776671Y-120437165D01*
X153776642Y-120236352D01*
X153776548Y-120054349D01*
X153776362Y-119890216D01*
X153776059Y-119743011D01*
X153775614Y-119611792D01*
X153775034Y-119501867D01*
X153472197Y-119501867D01*
X153432407Y-119559711D01*
X153421236Y-119575479D01*
X153411166Y-119589441D01*
X153402138Y-119602784D01*
X153394097Y-119616693D01*
X153386986Y-119632356D01*
X153380747Y-119650958D01*
X153375325Y-119673686D01*
X153370662Y-119701727D01*
X153366701Y-119736267D01*
X153363385Y-119778492D01*
X153360659Y-119829589D01*
X153358464Y-119890744D01*
X153356745Y-119963144D01*
X153355444Y-120047975D01*
X153354505Y-120146422D01*
X153353870Y-120259674D01*
X153353484Y-120388916D01*
X153353288Y-120535334D01*
X153353227Y-120700116D01*
X153353243Y-120884447D01*
X153353280Y-121089513D01*
X153353289Y-121212133D01*
X153353265Y-121429082D01*
X153353231Y-121624642D01*
X153353243Y-121799999D01*
X153353358Y-121956341D01*
X153353630Y-122094857D01*
X153354118Y-122216734D01*
X153354876Y-122323160D01*
X153355962Y-122415322D01*
X153357431Y-122494409D01*
X153359340Y-122561608D01*
X153361744Y-122618107D01*
X153364701Y-122665093D01*
X153368266Y-122703755D01*
X153372495Y-122735280D01*
X153377446Y-122760855D01*
X153383173Y-122781670D01*
X153389733Y-122798911D01*
X153397183Y-122813765D01*
X153405579Y-122827422D01*
X153414976Y-122841069D01*
X153425432Y-122855893D01*
X153431523Y-122864783D01*
X153470296Y-122922400D01*
X152938732Y-122922400D01*
X152815483Y-122922365D01*
X152712987Y-122922215D01*
X152629420Y-122921878D01*
X152562956Y-122921286D01*
X152511771Y-122920367D01*
X152474041Y-122919051D01*
X152447940Y-122917269D01*
X152431644Y-122914951D01*
X152423328Y-122912026D01*
X152421168Y-122908424D01*
X152423339Y-122904075D01*
X152424535Y-122902645D01*
X152449685Y-122865573D01*
X152475583Y-122812772D01*
X152499192Y-122750770D01*
X152507461Y-122724357D01*
X152512078Y-122706416D01*
X152515979Y-122685355D01*
X152519248Y-122659089D01*
X152521966Y-122625532D01*
X152524215Y-122582599D01*
X152526077Y-122528204D01*
X152527636Y-122460262D01*
X152528972Y-122376688D01*
X152530169Y-122275395D01*
X152531308Y-122154300D01*
X152531685Y-122109600D01*
X152532702Y-121984449D01*
X152533460Y-121880082D01*
X152533903Y-121794707D01*
X152533970Y-121726533D01*
X152533605Y-121673765D01*
X152532748Y-121634614D01*
X152531341Y-121607285D01*
X152529325Y-121589986D01*
X152526643Y-121580926D01*
X152523236Y-121578312D01*
X152519044Y-121580351D01*
X152514571Y-121584667D01*
X152504216Y-121597602D01*
X152482158Y-121626676D01*
X152449957Y-121669759D01*
X152409174Y-121724718D01*
X152361370Y-121789423D01*
X152308105Y-121861742D01*
X152250940Y-121939544D01*
X152191437Y-122020698D01*
X152131155Y-122103072D01*
X152071655Y-122184536D01*
X152014498Y-122262957D01*
X151961245Y-122336204D01*
X151913457Y-122402147D01*
X151872693Y-122458654D01*
X151840516Y-122503593D01*
X151818485Y-122534834D01*
X151813917Y-122541466D01*
X151790996Y-122578369D01*
X151764188Y-122626359D01*
X151738789Y-122675897D01*
X151735568Y-122682577D01*
X151713890Y-122730772D01*
X151701304Y-122768334D01*
X151695574Y-122804160D01*
X151694456Y-122846200D01*
X151695090Y-122922400D01*
X150540651Y-122922400D01*
X150631815Y-122828669D01*
X150678612Y-122778775D01*
X150728899Y-122722295D01*
X150774944Y-122668026D01*
X150795369Y-122642673D01*
X150825807Y-122603128D01*
X150865862Y-122549916D01*
X150914361Y-122484667D01*
X150970135Y-122409011D01*
X151032011Y-122324577D01*
X151098819Y-122232994D01*
X151169387Y-122135892D01*
X151242545Y-122034901D01*
X151317121Y-121931650D01*
X151391944Y-121827768D01*
X151465843Y-121724885D01*
X151537646Y-121624631D01*
X151606184Y-121528636D01*
X151670284Y-121438527D01*
X151728775Y-121355936D01*
X151780486Y-121282492D01*
X151824247Y-121219824D01*
X151858885Y-121169561D01*
X151883230Y-121133334D01*
X151896111Y-121112771D01*
X151897869Y-121108668D01*
X151889910Y-121097342D01*
X151869115Y-121070162D01*
X151836847Y-121028829D01*
X151794470Y-120975044D01*
X151743347Y-120910506D01*
X151684841Y-120836918D01*
X151620314Y-120755978D01*
X151551131Y-120669388D01*
X151478653Y-120578848D01*
X151404246Y-120486060D01*
X151344517Y-120411702D01*
X150333511Y-120411702D01*
X150327602Y-120424659D01*
X150313272Y-120446908D01*
X150312225Y-120448391D01*
X150293438Y-120478544D01*
X150273791Y-120515375D01*
X150269892Y-120523511D01*
X150266356Y-120531940D01*
X150263230Y-120542059D01*
X150260486Y-120555260D01*
X150258092Y-120572938D01*
X150256019Y-120596484D01*
X150254235Y-120627293D01*
X150252712Y-120666757D01*
X150251419Y-120716269D01*
X150250326Y-120777223D01*
X150249403Y-120851011D01*
X150248619Y-120939028D01*
X150247945Y-121042665D01*
X150247350Y-121163316D01*
X150246805Y-121302374D01*
X150246279Y-121461232D01*
X150245745Y-121640089D01*
X150245206Y-121825207D01*
X150244772Y-121989145D01*
X150244509Y-122133303D01*
X150244484Y-122259079D01*
X150244765Y-122367871D01*
X150245419Y-122461077D01*
X150246514Y-122540097D01*
X150248118Y-122606328D01*
X150250297Y-122661170D01*
X150253119Y-122706021D01*
X150256651Y-122742278D01*
X150260961Y-122771341D01*
X150266117Y-122794609D01*
X150272185Y-122813479D01*
X150279233Y-122829351D01*
X150287329Y-122843622D01*
X150296540Y-122857691D01*
X150305040Y-122870158D01*
X150322176Y-122896452D01*
X150332322Y-122914037D01*
X150333511Y-122917257D01*
X150322604Y-122918334D01*
X150291411Y-122919335D01*
X150242223Y-122920235D01*
X150177333Y-122921010D01*
X150099030Y-122921637D01*
X150009607Y-122922091D01*
X149911356Y-122922349D01*
X149842445Y-122922400D01*
X149737452Y-122922180D01*
X149640610Y-122921548D01*
X149554107Y-122920549D01*
X149480132Y-122919227D01*
X149420874Y-122917626D01*
X149378520Y-122915791D01*
X149355260Y-122913765D01*
X149351378Y-122912493D01*
X149359076Y-122897591D01*
X149367074Y-122889560D01*
X149380246Y-122872434D01*
X149397485Y-122842183D01*
X149409407Y-122817622D01*
X149436045Y-122758711D01*
X149439120Y-121581845D01*
X149442195Y-120404978D01*
X149887853Y-120404978D01*
X149985670Y-120405142D01*
X150076064Y-120405611D01*
X150156630Y-120406347D01*
X150224962Y-120407316D01*
X150278656Y-120408480D01*
X150315305Y-120409803D01*
X150332504Y-120411249D01*
X150333511Y-120411702D01*
X151344517Y-120411702D01*
X151329270Y-120392722D01*
X151255090Y-120300537D01*
X151183069Y-120211204D01*
X151114569Y-120126424D01*
X151050955Y-120047898D01*
X150993588Y-119977326D01*
X150943833Y-119916409D01*
X150903052Y-119866847D01*
X150885888Y-119846178D01*
X150799596Y-119745516D01*
X150722997Y-119662259D01*
X150654183Y-119594438D01*
X150591248Y-119540089D01*
X150581867Y-119532722D01*
X150542356Y-119502117D01*
X151674116Y-119501867D01*
X151668827Y-119549844D01*
X151672130Y-119607188D01*
X151693661Y-119675463D01*
X151733635Y-119755212D01*
X151778943Y-119827495D01*
X151795161Y-119850140D01*
X151823214Y-119887696D01*
X151861430Y-119938021D01*
X151908137Y-119998973D01*
X151961661Y-120068411D01*
X152020331Y-120144194D01*
X152082475Y-120224180D01*
X152146421Y-120306228D01*
X152210495Y-120388196D01*
X152273027Y-120467943D01*
X152332343Y-120543327D01*
X152386771Y-120612207D01*
X152434639Y-120672442D01*
X152474275Y-120721889D01*
X152504006Y-120758408D01*
X152522161Y-120779858D01*
X152525220Y-120783156D01*
X152528079Y-120775149D01*
X152530293Y-120744855D01*
X152531857Y-120692556D01*
X152532767Y-120618531D01*
X152533020Y-120523063D01*
X152532613Y-120406434D01*
X152531704Y-120286445D01*
X152530382Y-120154333D01*
X152528857Y-120042594D01*
X152526881Y-119949025D01*
X152524206Y-119871419D01*
X152520582Y-119807574D01*
X152515761Y-119755283D01*
X152509494Y-119712344D01*
X152501532Y-119676551D01*
X152491627Y-119645700D01*
X152479531Y-119617586D01*
X152464993Y-119590005D01*
X152450311Y-119564966D01*
X152412314Y-119501867D01*
X153472197Y-119501867D01*
X153775034Y-119501867D01*
X153775001Y-119495617D01*
X153774195Y-119393544D01*
X153773170Y-119304633D01*
X153771900Y-119227941D01*
X153770360Y-119162527D01*
X153768524Y-119107449D01*
X153766367Y-119061765D01*
X153763863Y-119024534D01*
X153760987Y-118994813D01*
X153757713Y-118971662D01*
X153754015Y-118954139D01*
X153749869Y-118941301D01*
X153745247Y-118932208D01*
X153740126Y-118925918D01*
X153734478Y-118921488D01*
X153728279Y-118917978D01*
X153721504Y-118914445D01*
X153715508Y-118910876D01*
X153710275Y-118908300D01*
X153702099Y-118905972D01*
X153689886Y-118903878D01*
X153672541Y-118902007D01*
X153648969Y-118900347D01*
X153618077Y-118898884D01*
X153578768Y-118897608D01*
X153529950Y-118896504D01*
X153470527Y-118895561D01*
X153399404Y-118894767D01*
X153315488Y-118894109D01*
X153217683Y-118893575D01*
X153104894Y-118893153D01*
X152976029Y-118892829D01*
X152829991Y-118892592D01*
X152665686Y-118892430D01*
X152482020Y-118892330D01*
X152277897Y-118892280D01*
X152066753Y-118892267D01*
X150446400Y-118892267D01*
X150446400Y-118989054D01*
G36*
X153775614Y-119611792D02*
G01*
X153776059Y-119743011D01*
X153776362Y-119890216D01*
X153776548Y-120054349D01*
X153776642Y-120236352D01*
X153776671Y-120437165D01*
X153776661Y-120657732D01*
X153776636Y-120898992D01*
X153776622Y-121161889D01*
X153776622Y-121204040D01*
X153776646Y-121464668D01*
X153776685Y-121703796D01*
X153776708Y-121922360D01*
X153776687Y-122121295D01*
X153776593Y-122301535D01*
X153776395Y-122464015D01*
X153776063Y-122609670D01*
X153775569Y-122739434D01*
X153774883Y-122854243D01*
X153773976Y-122955030D01*
X153772817Y-123042730D01*
X153771378Y-123118279D01*
X153769629Y-123182611D01*
X153767540Y-123236661D01*
X153765083Y-123281363D01*
X153762227Y-123317652D01*
X153758943Y-123346463D01*
X153755202Y-123368731D01*
X153750974Y-123385390D01*
X153746229Y-123397375D01*
X153740939Y-123405621D01*
X153735073Y-123411062D01*
X153728602Y-123414634D01*
X153721497Y-123417270D01*
X153713728Y-123419906D01*
X153705266Y-123423477D01*
X153700908Y-123425145D01*
X153692395Y-123427111D01*
X153679694Y-123428911D01*
X153661885Y-123430555D01*
X153638049Y-123432047D01*
X153607266Y-123433397D01*
X153568617Y-123434611D01*
X153521182Y-123435697D01*
X153464043Y-123436661D01*
X153396279Y-123437511D01*
X153316971Y-123438253D01*
X153225199Y-123438897D01*
X153120044Y-123439447D01*
X153000587Y-123439913D01*
X152865908Y-123440300D01*
X152715088Y-123440616D01*
X152547206Y-123440869D01*
X152361345Y-123441066D01*
X152156583Y-123441213D01*
X151932002Y-123441318D01*
X151686682Y-123441389D01*
X151419704Y-123441432D01*
X151381321Y-123441437D01*
X151115922Y-123441480D01*
X150872050Y-123441525D01*
X150648783Y-123441548D01*
X150445196Y-123441524D01*
X150260367Y-123441430D01*
X150093373Y-123441243D01*
X149943290Y-123440939D01*
X149809196Y-123440494D01*
X149690166Y-123439885D01*
X149585279Y-123439089D01*
X149493610Y-123438080D01*
X149414237Y-123436837D01*
X149346237Y-123435335D01*
X149288686Y-123433551D01*
X149240662Y-123431461D01*
X149201240Y-123429042D01*
X149169499Y-123426270D01*
X149144514Y-123423121D01*
X149125364Y-123419572D01*
X149111123Y-123415598D01*
X149100871Y-123411178D01*
X149093682Y-123406286D01*
X149088635Y-123400900D01*
X149084805Y-123394996D01*
X149081271Y-123388549D01*
X149077108Y-123381537D01*
X149076025Y-123379687D01*
X149073813Y-123374180D01*
X149071786Y-123365868D01*
X149069938Y-123353809D01*
X149068261Y-123337063D01*
X149066745Y-123314687D01*
X149065383Y-123285740D01*
X149064167Y-123249280D01*
X149063089Y-123204367D01*
X149062140Y-123150057D01*
X149061312Y-123085410D01*
X149060597Y-123009484D01*
X149059987Y-122921338D01*
X149059942Y-122912493D01*
X149351378Y-122912493D01*
X149355260Y-122913765D01*
X149378520Y-122915791D01*
X149420874Y-122917626D01*
X149480132Y-122919227D01*
X149554107Y-122920549D01*
X149640610Y-122921548D01*
X149737452Y-122922180D01*
X149842445Y-122922400D01*
X150540651Y-122922400D01*
X151695090Y-122922400D01*
X151694456Y-122846200D01*
X151695574Y-122804160D01*
X151701304Y-122768334D01*
X151713890Y-122730772D01*
X151735568Y-122682577D01*
X151738789Y-122675897D01*
X151764188Y-122626359D01*
X151790996Y-122578369D01*
X151813917Y-122541466D01*
X151818485Y-122534834D01*
X151840516Y-122503593D01*
X151872693Y-122458654D01*
X151913457Y-122402147D01*
X151961245Y-122336204D01*
X152014498Y-122262957D01*
X152071655Y-122184536D01*
X152131155Y-122103072D01*
X152191437Y-122020698D01*
X152250940Y-121939544D01*
X152308105Y-121861742D01*
X152361370Y-121789423D01*
X152409174Y-121724718D01*
X152449957Y-121669759D01*
X152482158Y-121626676D01*
X152504216Y-121597602D01*
X152514571Y-121584667D01*
X152519044Y-121580351D01*
X152523236Y-121578312D01*
X152526643Y-121580926D01*
X152529325Y-121589986D01*
X152531341Y-121607285D01*
X152532748Y-121634614D01*
X152533605Y-121673765D01*
X152533970Y-121726533D01*
X152533903Y-121794707D01*
X152533460Y-121880082D01*
X152532702Y-121984449D01*
X152531685Y-122109600D01*
X152531308Y-122154300D01*
X152530169Y-122275395D01*
X152528972Y-122376688D01*
X152527636Y-122460262D01*
X152526077Y-122528204D01*
X152524215Y-122582599D01*
X152521966Y-122625532D01*
X152519248Y-122659089D01*
X152515979Y-122685355D01*
X152512078Y-122706416D01*
X152507461Y-122724357D01*
X152499192Y-122750770D01*
X152475583Y-122812772D01*
X152449685Y-122865573D01*
X152424535Y-122902645D01*
X152423339Y-122904075D01*
X152421168Y-122908424D01*
X152423328Y-122912026D01*
X152431644Y-122914951D01*
X152447940Y-122917269D01*
X152474041Y-122919051D01*
X152511771Y-122920367D01*
X152562956Y-122921286D01*
X152629420Y-122921878D01*
X152712987Y-122922215D01*
X152815483Y-122922365D01*
X152938732Y-122922400D01*
X153470296Y-122922400D01*
X153431523Y-122864783D01*
X153425432Y-122855893D01*
X153414976Y-122841069D01*
X153405579Y-122827422D01*
X153397183Y-122813765D01*
X153389733Y-122798911D01*
X153383173Y-122781670D01*
X153377446Y-122760855D01*
X153372495Y-122735280D01*
X153368266Y-122703755D01*
X153364701Y-122665093D01*
X153361744Y-122618107D01*
X153359340Y-122561608D01*
X153357431Y-122494409D01*
X153355962Y-122415322D01*
X153354876Y-122323160D01*
X153354118Y-122216734D01*
X153353630Y-122094857D01*
X153353358Y-121956341D01*
X153353243Y-121799999D01*
X153353231Y-121624642D01*
X153353265Y-121429082D01*
X153353289Y-121212133D01*
X153353280Y-121089513D01*
X153353243Y-120884447D01*
X153353227Y-120700116D01*
X153353288Y-120535334D01*
X153353484Y-120388916D01*
X153353870Y-120259674D01*
X153354505Y-120146422D01*
X153355444Y-120047975D01*
X153356745Y-119963144D01*
X153358464Y-119890744D01*
X153360659Y-119829589D01*
X153363385Y-119778492D01*
X153366701Y-119736267D01*
X153370662Y-119701727D01*
X153375325Y-119673686D01*
X153380747Y-119650958D01*
X153386986Y-119632356D01*
X153394097Y-119616693D01*
X153402138Y-119602784D01*
X153411166Y-119589441D01*
X153421236Y-119575479D01*
X153432407Y-119559711D01*
X153472197Y-119501867D01*
X152412314Y-119501867D01*
X152450311Y-119564966D01*
X152464993Y-119590005D01*
X152479531Y-119617586D01*
X152491627Y-119645700D01*
X152501532Y-119676551D01*
X152509494Y-119712344D01*
X152515761Y-119755283D01*
X152520582Y-119807574D01*
X152524206Y-119871419D01*
X152526881Y-119949025D01*
X152528857Y-120042594D01*
X152530382Y-120154333D01*
X152531704Y-120286445D01*
X152532613Y-120406434D01*
X152533020Y-120523063D01*
X152532767Y-120618531D01*
X152531857Y-120692556D01*
X152530293Y-120744855D01*
X152528079Y-120775149D01*
X152525220Y-120783156D01*
X152522161Y-120779858D01*
X152504006Y-120758408D01*
X152474275Y-120721889D01*
X152434639Y-120672442D01*
X152386771Y-120612207D01*
X152332343Y-120543327D01*
X152273027Y-120467943D01*
X152210495Y-120388196D01*
X152146421Y-120306228D01*
X152082475Y-120224180D01*
X152020331Y-120144194D01*
X151961661Y-120068411D01*
X151908137Y-119998973D01*
X151861430Y-119938021D01*
X151823214Y-119887696D01*
X151795161Y-119850140D01*
X151778943Y-119827495D01*
X151733635Y-119755212D01*
X151693661Y-119675463D01*
X151672130Y-119607188D01*
X151668827Y-119549844D01*
X151674116Y-119501867D01*
X150542356Y-119502117D01*
X150581867Y-119532722D01*
X150591248Y-119540089D01*
X150654183Y-119594438D01*
X150722997Y-119662259D01*
X150799596Y-119745516D01*
X150885888Y-119846178D01*
X150903052Y-119866847D01*
X150943833Y-119916409D01*
X150993588Y-119977326D01*
X151050955Y-120047898D01*
X151114569Y-120126424D01*
X151183069Y-120211204D01*
X151255090Y-120300537D01*
X151329270Y-120392722D01*
X151344517Y-120411702D01*
X151404246Y-120486060D01*
X151478653Y-120578848D01*
X151551131Y-120669388D01*
X151620314Y-120755978D01*
X151684841Y-120836918D01*
X151743347Y-120910506D01*
X151794470Y-120975044D01*
X151836847Y-121028829D01*
X151869115Y-121070162D01*
X151889910Y-121097342D01*
X151897869Y-121108668D01*
X151896111Y-121112771D01*
X151883230Y-121133334D01*
X151858885Y-121169561D01*
X151824247Y-121219824D01*
X151780486Y-121282492D01*
X151728775Y-121355936D01*
X151670284Y-121438527D01*
X151606184Y-121528636D01*
X151537646Y-121624631D01*
X151465843Y-121724885D01*
X151391944Y-121827768D01*
X151317121Y-121931650D01*
X151242545Y-122034901D01*
X151169387Y-122135892D01*
X151098819Y-122232994D01*
X151032011Y-122324577D01*
X150970135Y-122409011D01*
X150914361Y-122484667D01*
X150865862Y-122549916D01*
X150825807Y-122603128D01*
X150795369Y-122642673D01*
X150774944Y-122668026D01*
X150728899Y-122722295D01*
X150678612Y-122778775D01*
X150631815Y-122828669D01*
X150540651Y-122922400D01*
X149842445Y-122922400D01*
X149911356Y-122922349D01*
X150009607Y-122922091D01*
X150099030Y-122921637D01*
X150177333Y-122921010D01*
X150242223Y-122920235D01*
X150291411Y-122919335D01*
X150322604Y-122918334D01*
X150333511Y-122917257D01*
X150332322Y-122914037D01*
X150322176Y-122896452D01*
X150305040Y-122870158D01*
X150296540Y-122857691D01*
X150287329Y-122843622D01*
X150279233Y-122829351D01*
X150272185Y-122813479D01*
X150266117Y-122794609D01*
X150260961Y-122771341D01*
X150256651Y-122742278D01*
X150253119Y-122706021D01*
X150250297Y-122661170D01*
X150248118Y-122606328D01*
X150246514Y-122540097D01*
X150245419Y-122461077D01*
X150244765Y-122367871D01*
X150244484Y-122259079D01*
X150244509Y-122133303D01*
X150244772Y-121989145D01*
X150245206Y-121825207D01*
X150245745Y-121640089D01*
X150246279Y-121461232D01*
X150246805Y-121302374D01*
X150247350Y-121163316D01*
X150247945Y-121042665D01*
X150248619Y-120939028D01*
X150249403Y-120851011D01*
X150250326Y-120777223D01*
X150251419Y-120716269D01*
X150252712Y-120666757D01*
X150254235Y-120627293D01*
X150256019Y-120596484D01*
X150258092Y-120572938D01*
X150260486Y-120555260D01*
X150263230Y-120542059D01*
X150266356Y-120531940D01*
X150269892Y-120523511D01*
X150273791Y-120515375D01*
X150293438Y-120478544D01*
X150312225Y-120448391D01*
X150313272Y-120446908D01*
X150327602Y-120424659D01*
X150333511Y-120411702D01*
X150332504Y-120411249D01*
X150315305Y-120409803D01*
X150278656Y-120408480D01*
X150224962Y-120407316D01*
X150156630Y-120406347D01*
X150076064Y-120405611D01*
X149985670Y-120405142D01*
X149887853Y-120404978D01*
X149442195Y-120404978D01*
X149439120Y-121581845D01*
X149436045Y-122758711D01*
X149409407Y-122817622D01*
X149397485Y-122842183D01*
X149380246Y-122872434D01*
X149367074Y-122889560D01*
X149359076Y-122897591D01*
X149351378Y-122912493D01*
X149059942Y-122912493D01*
X149059474Y-122820029D01*
X149059050Y-122704617D01*
X149058706Y-122574160D01*
X149058434Y-122427716D01*
X149058227Y-122264344D01*
X149058076Y-122083101D01*
X149057972Y-121883048D01*
X149057908Y-121663241D01*
X149057876Y-121422739D01*
X149057867Y-121160602D01*
X149057867Y-118969031D01*
X149096249Y-118930649D01*
X149123355Y-118906911D01*
X149150253Y-118895111D01*
X149186560Y-118892267D01*
X149238489Y-118892267D01*
X149238489Y-118980206D01*
X149240427Y-119030102D01*
X149259199Y-119140523D01*
X149296217Y-119241987D01*
X149349369Y-119333152D01*
X149416546Y-119412673D01*
X149495638Y-119479205D01*
X149584534Y-119531406D01*
X149681125Y-119567930D01*
X149783300Y-119587434D01*
X149888950Y-119588573D01*
X149995964Y-119570005D01*
X150102232Y-119530384D01*
X150199219Y-119472516D01*
X150284293Y-119397684D01*
X150353015Y-119309615D01*
X150403918Y-119210616D01*
X150435535Y-119102993D01*
X150446400Y-118989054D01*
X150446400Y-118892267D01*
X152066753Y-118892267D01*
X152277897Y-118892280D01*
X152482020Y-118892330D01*
X152665686Y-118892430D01*
X152829991Y-118892592D01*
X152976029Y-118892829D01*
X153104894Y-118893153D01*
X153217683Y-118893575D01*
X153315488Y-118894109D01*
X153399404Y-118894767D01*
X153470527Y-118895561D01*
X153529950Y-118896504D01*
X153578768Y-118897608D01*
X153618077Y-118898884D01*
X153648969Y-118900347D01*
X153672541Y-118902007D01*
X153689886Y-118903878D01*
X153702099Y-118905972D01*
X153710275Y-118908300D01*
X153715508Y-118910876D01*
X153721504Y-118914445D01*
X153728279Y-118917978D01*
X153734478Y-118921488D01*
X153740126Y-118925918D01*
X153745247Y-118932208D01*
X153749869Y-118941301D01*
X153754015Y-118954139D01*
X153757713Y-118971662D01*
X153760987Y-118994813D01*
X153763863Y-119024534D01*
X153766367Y-119061765D01*
X153768524Y-119107449D01*
X153770360Y-119162527D01*
X153771900Y-119227941D01*
X153773170Y-119304633D01*
X153774195Y-119393544D01*
X153775001Y-119495617D01*
X153775034Y-119501867D01*
X153775614Y-119611792D01*
G37*
%TD*%
M02*
